<svg xmlns="http://www.w3.org/2000/svg" width="128" height="128"><path d="M64.056-0.002c-29.387 0-54.412 18.924-62.739 45.004h9.298a53.472 53.472 0 0 1 3.457-7.443h17.892c-0.78 2.435-1.421 4.925-1.953 7.443h9.063c0.633-2.537 1.388-5.029 2.285-7.443h17.267v7.443h8.751v-7.443h18.653c1.004 2.415 1.847 4.902 2.56 7.443h9.063c-0.609-2.52-1.317-5.006-2.188-7.443h18.576a53.472 53.472 0 0 1 3.457 7.443h9.278C118.449 18.922 93.443-0.002 64.056-0.002m13.205 10.294c12.248 2.816 22.945 9.421 30.686 18.517h-16.232c-3.625-7.014-8.429-13.343-14.454-18.517m-28.968 0.644c-5.424 5.035-9.703 11.132-12.891 17.873h-15.236c7.197-8.458 16.948-14.761 28.127-17.873m19.084 2.813c5.769 3.949 10.425 9.157 14.122 15.06h-14.122z m-8.751 0.059v15.001H45.441c3.387-5.916 7.711-11.111 13.185-15.001m-54.692 39.651c-0.871 0-1.598 0.196-2.188 0.606-0.59 0.409-0.879 0.918-0.879 1.504 0 0.438 0.126 1.045 0.41 1.836l4.649 13.36c0.142 0.399 0.305 0.85 0.489 1.329a4.59 4.59 0 0 0 0.742 1.269c0.302 0.366 0.713 0.647 1.23 0.86s1.169 0.312 1.954 0.312c0.973 0 1.738-0.176 2.324-0.527 0.587-0.351 1.005-0.728 1.23-1.153 0.226-0.424 0.507-1.078 0.86-1.973l4.161-11.719 4.141 11.778c0.345 0.873 0.619 1.517 0.839 1.934s0.625 0.806 1.212 1.152c0.586 0.346 1.366 0.508 2.344 0.508 1.027 0 1.833-0.169 2.402-0.527s0.968-0.762 1.192-1.212c0.224-0.448 0.486-1.132 0.8-2.031l4.649-13.36c0.289-0.839 0.43-1.446 0.43-1.836 0-0.596-0.302-1.1-0.899-1.504-0.596-0.404-1.313-0.606-2.168-0.606-0.858 0-1.52 0.152-1.973 0.469q-0.679 0.475-0.937 1.035c-0.174 0.374-0.352 0.868-0.528 1.465l-3.281 11.368-3.672-10.645c-0.343-0.894-0.622-1.536-0.84-1.953-0.218-0.417-0.639-0.821-1.23-1.192s-1.416-0.547-2.481-0.547c-1.047 0-1.865 0.171-2.481 0.528s-1.055 0.774-1.309 1.23-0.531 1.092-0.84 1.934l-3.652 10.645-3.301-11.446c-0.258-0.868-0.593-1.558-0.997-2.09s-1.2-0.801-2.402-0.801m44.984 0c-0.871 0-1.598 0.196-2.187 0.606-0.59 0.409-0.879 0.918-0.879 1.504 0 0.438 0.145 1.045 0.43 1.836l4.648 13.36c0.142 0.399 0.305 0.85 0.489 1.329s0.421 0.904 0.722 1.269c0.302 0.366 0.713 0.647 1.231 0.86s1.169 0.312 1.953 0.312c0.973 0 1.757-0.176 2.344-0.527 0.586-0.351 0.985-0.728 1.212-1.153 0.225-0.424 0.506-1.078 0.858-1.973l4.161-11.719 4.141 11.778c0.345 0.873 0.62 1.517 0.84 1.934s0.625 0.806 1.211 1.152 1.366 0.508 2.344 0.508c1.028 0 1.833-0.169 2.402-0.527s0.968-0.762 1.192-1.212c0.224-0.448 0.486-1.132 0.801-2.031l4.649-13.36c0.288-0.839 0.43-1.446 0.429-1.836 0-0.596-0.302-1.1-0.898-1.504s-1.313-0.606-2.168-0.606c-0.857 0-1.519 0.152-1.973 0.469q-0.679 0.475-0.938 1.035c-0.173 0.374-0.352 0.868-0.527 1.465l-3.281 11.368-3.672-10.645c-0.344-0.894-0.622-1.536-0.841-1.953-0.218-0.417-0.62-0.821-1.211-1.192S64.984 53.459 63.92 53.459c-1.047 0-1.885 0.171-2.501 0.528s-1.055 0.774-1.308 1.23c-0.254 0.457-0.531 1.092-0.84 1.934l-3.653 10.645-3.301-11.446c-0.258-0.868-0.574-1.558-0.976-2.09-0.403-0.531-1.219-0.801-2.423-0.801m44.985 0c-0.871 0-1.598 0.196-2.188 0.606-0.59 0.409-0.879 0.918-0.879 1.504 0 0.438 0.146 1.045 0.429 1.836l4.649 13.36c0.142 0.399 0.305 0.85 0.489 1.329 0.184 0.478 0.421 0.904 0.723 1.269s0.713 0.647 1.23 0.86 1.169 0.312 1.953 0.312c0.973 0 1.757-0.176 2.344-0.527 0.587-0.351 0.985-0.728 1.211-1.153 0.226-0.424 0.526-1.078 0.879-1.973l4.141-11.719 4.141 11.778c0.345 0.873 0.619 1.517 0.84 1.934s0.625 0.806 1.211 1.152c0.586 0.346 1.366 0.508 2.344 0.508 1.028 0 1.833-0.169 2.403-0.527s0.968-0.762 1.191-1.212c0.224-0.448 0.486-1.132 0.801-2.031l4.648-13.36c0.289-0.839 0.43-1.446 0.431-1.836 0-0.596-0.283-1.1-0.88-1.504s-1.333-0.606-2.187-0.606c-0.858 0-1.52 0.152-1.973 0.469q-0.679 0.475-0.937 1.035c-0.174 0.374-0.352 0.868-0.528 1.465l-3.262 11.368-3.692-10.645c-0.343-0.894-0.622-1.536-0.84-1.953-0.218-0.417-0.62-0.821-1.211-1.192s-1.415-0.547-2.48-0.547c-1.047 0-1.885 0.171-2.5 0.528s-1.055 0.774-1.309 1.23-0.531 1.092-0.84 1.934l-3.653 10.645-3.281-11.446c-0.258-0.868-0.593-1.558-0.997-2.09-0.403-0.531-1.219-0.801-2.421-0.801m-92.918 28.382c7.95 26.669 33.253 46.156 63.071 46.156s55.122-19.486 63.072-46.156H117.888a53.945 53.945 0 0 1-3.164 7.285h-18.752c0.798-2.384 1.457-4.822 2.012-7.285h-8.926c-0.623 2.491-1.37 4.925-2.286 7.285h-19.396v-7.285h-8.75v7.285h-17.717a74.292 74.292 0 0 1-2.07-7.285H29.854a89.908 89.908 0 0 0 1.817 7.285h-18.283a53.945 53.945 0 0 1-3.184-7.285z m18.146 16.036h15.685c3.202 7.405 7.446 14.018 12.911 19.044C36.22 113.593 26.302 106.839 19.131 97.877m25.432 0h14.063v16.349c-5.683-3.602-10.436-9.346-14.063-16.349m22.814 0h15.041c-3.819 6.383-8.784 11.905-15.041 15.939z m25.1 0h16.506c-7.898 9.87-19.146 17.057-32.152 19.943 6.674-5.396 11.859-12.267 15.646-19.943"/></svg>