<svg xmlns="http://www.w3.org/2000/svg" width="35" height="35" viewBox="0 -1.5 35 35" xml:space="preserve"><path d="M-1.362 26.534q.172-.276.553-.034 8.636 5.01 18.792 5.009 6.77 0 13.37-2.521a41 41 0 0 0 .5-.207 8 8 0 0 0 .466-.208q.519-.207.812.208.293.413-.19.76-.62.45-1.588 1.036-2.97 1.762-6.635 2.729-3.66.968-7.15.968-5.389 0-10.19-1.883a28 28 0 0 1-8.602-5.303q-.207-.17-.208-.347a.37.37 0 0 1 .07-.207M9.035 16.689q0-2.384 1.175-4.077 1.175-1.692 3.212-2.556 1.866-.795 4.595-1.14a124 124 0 0 1 3.039-.277v-.586q0-2.21-.483-2.971Q19.848 4.046 18.294 4.046h-.276q-1.141.104-1.969.726-.83.622-1.071 1.727-.139.692-.691.795L10.313 6.81q-.587-.138-.587-.622 0-.104.034-.242.587-3.073 2.885-4.56c2.298-1.487 3.322-1.543 5.372-1.658h.863q3.94 0 6.149 2.039a7 7 0 0 1 1.105 1.45q.174.31.311.898a15 15 0 0 0 .208.812q.07.224.104.967.035.744.034.881v8.36q0 .898.259 1.641c.259.743.34.853.502 1.071q.242.328.795 1.054.206.312.207.553 0 .277-.276.483a2246 2246 0 0 1-3.109 2.694q-.414.31-1.002.069a11 11 0 0 1-.846-.796 24 24 0 0 1-.518-.552 8 8 0 0 1-.503-.673 13 13 0 0 0-.482-.673q-1.934 2.106-3.8 2.624-1.175.346-2.902.346-2.66 0-4.371-1.642-1.71-1.64-1.71-4.645m5.942-.69q0 1.346.674 2.16.674.811 1.814.812.103 0 .293-.035c.19-.035.213-.034.26-.034q1.45-.38 2.246-1.866a5.4 5.4 0 0 0 .568-1.433q.191-.777.208-1.261a42 42 0 0 0 .017-1.589v-.864q-2.004 0-3.039.276-3.041.862-3.041 3.834m14.507 11.122a1.1 1.1 0 0 1 .209-.276q.863-.587 1.659-.794a11 11 0 0 1 2.556-.379 2.1 2.1 0 0 1 .656.034q1.553.138 1.866.518.138.207.138.621v.242q-.001 1.21-.656 2.851-.657 1.642-1.831 2.642-.173.14-.311.14a.3.3 0 0 1-.139-.036q-.208-.102-.104-.38 1.277-3.004 1.277-4.178 0-.38-.138-.555-.345-.413-1.934-.413a16 16 0 0 0-1.382.069 68 68 0 0 0-1.591.205q-.207 0-.277-.069-.067-.068-.033-.136a.4.4 0 0 1 .035-.106"/></svg>