<svg version="1.1" xmlns="http://www.w3.org/2000/svg" x="0" y="0" width="32" height="32" viewBox="-1.5 0 32 32" xml:space="preserve"><path d="M1.061 19.168V10.56a1.92 1.92 0 0 1 .608-1.424q.608-.592 1.408-.592a1.94 1.94 0 0 1 1.424.592 1.94 1.94 0 0 1 .592 1.424v8.608q0 .832-.592 1.424c-.592.592-.869.592-1.424.592s-1.029-.197-1.424-.592a1.94 1.94 0 0 1-.592-1.424m5.536 3.2V8.992h18.368v13.376q0 .832-.592 1.424c-.592.592-.869.592-1.424.592H8.612q-.831 0-1.424-.592c-.593-.592-.591-.869-.591-1.424m0-14.88h18.368q0-3.68-2.721-6.048T15.781-.928q-3.745 0-6.465 2.368Q6.596 3.809 6.597 7.488M9.829-2.624q0-.256.224-.256a.5.5 0 0 1 .224.064l1.568 2.848-.48.256Q9.828-2.528 9.829-2.624m.48 25.824a1.9 1.9 0 0 1 .608-1.44q.608-.576 1.504-.576.8 0 1.408.608c.608.608.608.874.608 1.408v6.464q0 .896-.608 1.456t-1.504.56a1.94 1.94 0 0 1-1.424-.592 1.94 1.94 0 0 1-.592-1.424zm.16-19.84a1.18 1.18 0 0 1 .384-.88q.384-.368.896-.368c.512 0 .635.123.88.368a1.2 1.2 0 0 1 .368.88q0 .545-.368.912a1.24 1.24 0 0 1-.912.368 1.18 1.18 0 0 1-.88-.384 1.25 1.25 0 0 1-.368-.896m6.656 19.84a1.88 1.88 0 0 1 .623-1.44 2.12 2.12 0 0 1 1.488-.576 1.94 1.94 0 0 1 1.424.592 1.94 1.94 0 0 1 .592 1.425v6.464q0 .896-.607 1.456t-1.504.56q-.832 0-1.424-.592c-.592-.592-.592-.869-.592-1.424zM18.564 3.36a1.18 1.18 0 0 1 .385-.88q.384-.368.896-.368c.512 0 .634.123.88.368a1.2 1.2 0 0 1 .368.88q0 .545-.384.912-.384.368-.896.368c-.512 0-.635-.128-.88-.384a1.26 1.26 0 0 1-.369-.896M19.717.032q.064-.096.447-.912c.383-.816.508-1.014.752-1.408q.369-.592.593-.592c.224 0 .224.096.224.288v.064L20.197.32zm6.752 19.136v-8.576q0-.832.592-1.44c.592-.608.869-.608 1.424-.608s1.029.203 1.424.608.592.885.592 1.44v8.576q0 .832-.592 1.424c-.592.592-.869.592-1.424.592s-1.035-.197-1.439-.592a1.8 1.8 0 0 1-.577-1.424"/></svg>