<svg version="1.1" xmlns="http://www.w3.org/2000/svg" x="0" y="0" width="32" height="32" viewBox="-5 0 32 32" xml:space="preserve"><path d="M5.088 23.488q0-2.016.896-3.137.736-.992 2.368-1.439Q7.84 17.633 7.84 17.023q0-1.056 1.12-2.239 1.184-1.12 2.208-1.12.544 0 1.28.288Q10.912 9.567 10.24 7.296 9.472 4.704 9.472 3.616q0-1.536.768-2.4.8-.896 2.145-.896 2.303 0 5.535 9.44l.545 1.568a19 19 0 0 0 .383-1.056q3.2-9.344 5.761-9.344 1.279 0 2.016.864.77.864.769 2.24 0 .895-.769 3.616-.671 2.336-2.112 6.4 1.826.448 2.625 1.728Q28 17.151 28 20.032q0 5.695-3.392 9.312-3.457 3.616-8.769 3.616a11 11 0 0 1-4.063-.769Q9.888 31.521 8.352 30.08 6.721 28.545 5.92 26.912q-.832-1.728-.832-3.424m2.08-.16q0 .8.448 1.888.416 1.024 1.248 2.144 1.312 1.696 3.104 2.593 1.823.896 4.127.896 4.128 0 6.944-3.104 2.784-3.073 2.784-7.776 0-1.471-.191-2.272-.162-.703-.608-1.088-.864-.735-3.392-1.279-2.53-.576-5.377-.576-.704 0-.896.192-.224.096-.224.64 0 1.312 1.472 1.855 1.6.673 5.28.672h.896q.512 0 .735.353.258.256.353.992-.543.543-1.76.992-1.152.416-1.696.832a7.4 7.4 0 0 0-2.048 2.208q-.736 1.248-.735 2.367-.001.672.319 1.633.353 1.055.353 1.376v.192l-.129.479q-1.407-.095-2.047-1.312-.545-1.026-.609-2.625a1.5 1.5 0 0 1-.383.032h-.353a2 2 0 0 1 .032.384q0 .961-.736 1.633a2.48 2.48 0 0 1-1.729.672q-1.503 0-3.04-1.44Q7.776 25.407 7.776 24a1.5 1.5 0 0 1 .096-.512q.032-.224.512-.704.8.992 1.088 1.376 1.344 1.887 2.432 1.888a.9.9 0 0 0 .544-.192q.192-.191.192-.319 0-.255-.385-.929Q12 24.128 11.071 22.913q-.896-1.152-1.44-1.6-.48-.448-.704-.448-.608 0-1.184.704-.575.703-.575 1.759m2.88-6.112q0 .416.512 1.44.448.864 1.44 2.176.993 1.28 1.792 1.984.769.64 1.152.64.223 0 .448-.224.223-.256.224-.513 0-.384-.576-1.855A21 21 0 0 0 13.568 17.92Q12.864 16.8 12.32 16.352q-.512-.48-.992-.48-.351 0-.8.48-.48.48-.48.864m1.44-13.824q0 1.088.768 3.424.705 2.273 2.112 6.08.321-.192.896-.192.033 0 .209.016a4 4 0 0 0 .336.016q.127 0 .832.064L14.432 6.4Q13.537 3.84 13.025 3.072 12.609 2.4 12.192 2.4a.57.57 0 0 0-.479.256q-.226.288-.225.736m5.313 16.32a90 90 0 0 1 .607 1.601 8.5 8.5 0 0 1 1.279-1.217 11 11 0 0 0-.479-.08 10 10 0 0 1-.479-.08 9 9 0 0 1-.928-.224m3.359-6.528 2.145.384Q23.744 9.6 24.512 7.2q.8-2.592.801-3.072 0-.512-.225-.8-.128-.224-.479-.224-.449 0-.992.864Q23.008 4.896 22.24 7.2z"/></svg>