<svg xmlns="http://www.w3.org/2000/svg" width="32" height="32" viewBox="4.5 0 32 32" xml:space="preserve"><path d="M-4.908 13.376q0-3.36 1.68-6.016T1.14 3.152C3.828 1.6 4.857 1.333 6.916.8A24.7 24.7 0 0 1 13.14 0q.929 0 1.376.032a29 29 0 0 1 7.232 1.312 26.4 26.4 0 0 1 5.312 2.384 27 27 0 0 1 4.688 3.488 15.5 15.5 0 0 1 3.455 4.688 12.8 12.8 0 0 1 1.297 5.632q0 .415-.032.608-.353 4.863-3.856 8.191c-3.503 3.328-5.199 3.787-8.592 4.704Q20.596 32 16.691 32h-.256q-6.432 0-10.08-1.695-.192-.064-.224-.193 0-.063.096-.063a.6.6 0 0 1 .112.017 1 1 0 0 0 .112.016q1.6.384 2.848.384.768 0 1.504-.144c.736-.144.955-.31 1.392-.641q.657-.495.656-1.264a1.7 1.7 0 0 0-.192-.768q-.288-.513-1.872-1.072-1.584-.56-3.648-1.072c-2.064-.512-2.181-.555-2.416-.64Q2.163 24.033.275 22.753a2 2 0 0 1 .112-.304 119 119 0 0 1 .192-.464A1.8 1.8 0 0 1 .803 21.6q.144-.19.272-.191h5.728q.288 0 .528.688a7.2 7.2 0 0 0 .672 1.393q.432.703 1.136.703.576 0 .992-.367a1.2 1.2 0 0 0 .416-.944q0-.351-2.688-6.368Q5.171 10.498 4.467 9.122 4.276 8.64 3.956 8.64q-.255 0-.416.288l-.096.192Q3.187 9.6 1.78 12.768l-3.424 7.616-.224.48q-3.04-3.488-3.04-7.488m6.976 5.312q0-.32 1.728-4.127l.16-.096q.192 0 1.04 2.032t.848 2.224q0 .128-.16.128H2.228q-.16-.001-.16-.161m9.824 3.936q0 1.44 1.504 1.44t1.504-1.44V10.208q0-1.44-1.504-1.44t-1.504 1.44zm5.92 0q-.001 1.44 1.504 1.44 1.503 0 1.504-1.44v-5.792l2.943 5.92q.416.928 1.312.928 1.023 0 1.472-.928l2.912-5.92v5.792q0 1.44 1.504 1.44 1.536 0 1.536-1.44V10.208q0-1.44-1.504-1.44-1.12 0-1.504.928l-4.416 9.664L20.82 9.696q-.448-.928-1.537-.928-1.47 0-1.471 1.44z"/></svg>