<svg version="1.1" xmlns="http://www.w3.org/2000/svg" x="0" y="0" width="32" height="32" viewBox="2 0 32 32" xml:space="preserve"><path d="M-1.99 14.48Q-1.686 9.409.394 5.984 1.962 3.424 3.45 2.352T7.882.768A12.4 12.4 0 0 1 9.706.592a8 8 0 0 1 1.616.128 10.5 10.5 0 0 1 1.408.368 5 5 0 0 1 1.248.64q.592.416 1.072.816t.96 1.008.847 1.104q.369.496.769 1.232c.4.736.491.912.673 1.264q.271.528.655 1.296.224.447.448.96a63 63 0 0 1 .48 1.136q.255.624.416.976.255-1.536 1.807-6.016t2.16-4.64q2.911-.672 4.641 0 .129.064.288.256c.159.192.181.213.224.256a7 7 0 0 1-.191 1.232q-.16.657-.272 1.04c-.112.383-.214.646-.416 1.168a35 35 0 0 0-.368.976l-5.12 14.048q-.225 1.089.592 2.88.815 1.792 2.16 2.976 1.344 1.184 2.367.705.32-.16.576-.672.256-.513.448-.672.576-.48 2.272-.496t2.144.592q.511.927.352 2c-.159 1.073-.437 1.418-.991 2.111s-1.189 1.302-1.904 1.824q-1.072.784-2.368 1.168c-1.296.384-1.647.31-2.353.16a7 7 0 0 1-1.728-.592q-.8-.401-1.312-.816-.513-.415-1.088-1.168a18 18 0 0 1-.881-1.232 47 47 0 0 1-.863-1.439 170 170 0 0 1-.816-1.408.7.7 0 0 0-.191.129q-.77 1.855-2.593 3.407c-1.823 1.552-2.57 1.835-4.064 2.399q-2.24.848-4.8.625A9.13 9.13 0 0 1 3.37 30.592Q.65 28.609-.822 24.08c-1.472-4.529-1.37-6.219-1.168-9.6m4.88-.4q-.415 3.456.288 6.752c.703 3.296 1.248 3.701 2.336 4.512q.896.672 1.792.977a7 7 0 0 0 1.648.367q.752.064 1.568-.304c.816-.368 1.003-.47 1.376-.672q.56-.303 1.312-1.12.752-.816 1.136-1.264c.384-.448.608-.789 1.056-1.473a44 44 0 0 0 .88-1.375q.208-.353.784-1.345a13 13 0 0 1 .256-.448q-1.217-5.151-2.048-7.136Q12.938 6.016 8.81 6.591q-1.793.257-2.592.705t-1.6 1.568Q3.306 10.624 2.89 14.08"/></svg>