<svg version="1.1" xmlns="http://www.w3.org/2000/svg" x="0" y="0" width="32" height="32" viewBox="-2 0 32 32" xml:space="preserve"><path d="M2.513 14.688A20 20 0 0 0 2.48 15.84q0 2.176.64 4.608a20.3 20.3 0 0 0 2.656 5.888q2.848 4.352 5.504 4.384.96 0 2.496-.672c1.536-.672 2.038-.672 3.04-.672h.128q1.472 0 2.912.64 1.504.705 2.433.704 1.568-.031 2.912-1.312 1.344-1.28 2.719-3.328.993-1.535 2.08-3.872a7.04 7.04 0 0 1-2.72-1.824q-1.12-1.217-1.536-2.72a7.3 7.3 0 0 1-.287-2.24v-.768q.127-1.536 1.071-2.928c.944-1.392 1.467-1.68 2.513-2.256q-1.217-1.536-2.849-2.4t-3.296-.864q-1.535 0-3.376.688c-1.841.688-2.139.688-2.735.688q-.96 0-2.896-.688c-1.936-.688-2.374-.688-3.248-.688q-1.856 0-3.664 1.072T3.92 10.24q-1.184 1.792-1.407 4.448m13.28-8.256a5 5 0 0 1-.097-.96q0-2.08 1.696-4.128.863-1.056 2.225-1.792 1.36-.735 2.639-.832a7 7 0 0 1 .064.96q0 2.208-1.6 4.224A6.8 6.8 0 0 1 18.48 5.76q-1.313.704-2.561.672z"/></svg>