<svg version="1.1" xmlns="http://www.w3.org/2000/svg" x="0" y="0" width="32" height="32" viewBox="-2 0 32 32" xml:space="preserve"><path d="M2.288 5.12q0-1.92 4.064-3.264C10.416.512 12.325.512 16.144.512q5.76 0 9.809 1.344C30.002 3.2 30 3.84 30 5.12q0 .384-2.304 14.08-.288 1.472-3.553 2.848-3.264 1.376-8 1.376-4.735 0-8-1.376T4.623 19.2Q2.289 5.952 2.288 5.12m3.424 18.592v-.128q0-.544.48-.544a.6.6 0 0 1 .384.16q1.503 1.183 3.904 1.856 2.4.671 4.032.735l1.632.097q.257 0 .688-.017c.431-.017.849-.063 1.681-.16a23 23 0 0 0 2.383-.399 17 17 0 0 0 2.513-.801q1.376-.543 2.336-1.312l.353-.16q.512 0 .512.544a.3.3 0 0 1-.032.128 397 397 0 0 1-.96 5.152q-.352 1.568-3.072 2.608-2.718 1.04-6.4 1.039-3.68 0-6.399-1.039C7.028 30.432 6.92 29.908 6.707 28.863a282 282 0 0 1-.995-5.151M7.28 4.64q0 .768 2.608 1.328t6.255.56q3.68 0 6.289-.544 2.607-.544 2.607-1.312 0-.8-2.607-1.36t-6.289-.56q-3.68 0-6.271.544Q7.28 3.84 7.28 4.64m4.448 11.296q0 1.823 1.296 3.121 1.296 1.295 3.12 1.295t3.121-1.295q1.295-1.296 1.295-3.121c0-1.825-.432-2.256-1.295-3.12Q17.969 11.52 16.144 11.52q-1.823 0-3.12 1.296-1.296 1.296-1.296 3.12m2.208 0q0 .896.64 1.552c.64.656.949.656 1.567.656a2.1 2.1 0 0 0 1.568-.656q.64-.657.641-1.552c.001-.895-.214-1.115-.641-1.552a2.1 2.1 0 0 0-1.568-.656 2.1 2.1 0 0 0-1.567.656 2.15 2.15 0 0 0-.64 1.552"/></svg>