<svg xmlns="http://www.w3.org/2000/svg" width="32" height="32"><path d="M.48 12.224Q1.536 8 4.496 4.944t7.056-4.24 8.32-.128 7.28 4.016 4.24 7.056.128 8.32-4.016 7.28-7.056 4.24-8.32.128T4.848 27.6.608 20.544.48 12.224m7.296 8.672 2.304.576q.224.032.64.16t.608.16l-.736 2.912 1.76.448.704-2.88q.192.064.672.176t.736.176l-.704 2.88 1.76.416.704-2.912q1.536.256 2.736.24t2.112-.656 1.36-1.952Q23.456 17.76 20.8 16.384q1.92-.416 2.24-2.56.416-2.752-3.52-4.032l.736-2.912-1.76-.416-.704 2.816q-.256-.064-.736-.176t-.672-.176l.704-2.816-1.76-.448-.704 2.88q-.48-.064-1.12-.256L11.072 7.68l-.448 1.888 1.248.288q.896.224.832 1.024l-.832 3.296q.064 0 .192.064-.032-.032-.096-.032t-.096-.032l-1.152 4.608q-.16.576-.8.416l-1.28-.32zm5.856-.736.96-3.872q.032 0 .624.128t.896.224.896.288.912.416.672.528.464.704-.016.88q-.096.352-.288.608t-.48.384-.592.224-.736.08-.752-.048-.768-.128-.688-.144-.624-.144-.48-.128m1.408-5.632.864-3.52q.096.032.4.096t.528.112.576.16.608.208.576.272.48.352.368.432.192.528-.048.624q-.096.416-.336.688t-.608.368-.72.144-.848-.032-.768-.128-.736-.176-.528-.128"/></svg>