<svg xmlns="http://www.w3.org/2000/svg" width="31" height="32"><path d="M0 24.896q.352-.48 1.008-.816t1.568-.64 1.296-.496q.608 0 1.072.144t1.072.48.8.4q1.504.672 8.32 3.808.608.128 1.136 0t1.264-.56.768-.464q.64-.288 2.448-1.104t2.8-1.264q.128-.064 1.328-.672t1.936-.768q.416-.064.88.032t.752.24.736.416.576.336.496.192.592.256.352.352q.096.128.128.448-.32.416-.992.768t-1.632.704-1.28.512q-1.376.64-4.112 1.968T19.2 31.136q-.224.096-.672.368t-.752.416-.816.352-.88.224-.944-.048L6.688 28.512q-.192-.096-1.024-.448T4.016 27.36t-1.712-.768T.816 25.84t-.688-.528Q0 25.184 0 24.896M0 16.32q.352-.48 1.008-.8t1.6-.64 1.328-.48q.608 0 1.088.144t1.104.48.816.432q1.344.608 4.048 1.856t4.08 1.888q.608.16 1.184.016t1.248-.544.8-.464q2.176-1.024 5.12-2.304.352-.16 1.008-.528t1.232-.624 1.152-.352q.512-.096 1.008.032t1.2.544.736.416q.16.096.496.208t.576.256.368.336q.096.16.128.448-.32.448-1.008.816t-1.68.72-1.312.512q-1.536.736-4.336 2.08t-3.92 1.888q-.224.096-.832.448t-.928.48-1.04.32-1.136 0Q8.288 20.672 6.816 20q-.192-.096-1.408-.608t-2.224-.96-1.968-.944-1.088-.72Q0 16.64 0 16.32M0 7.776q.32-.48 1.008-.848t1.68-.72T4 5.696L15.136.512q.96 0 1.712.224t1.808.832 1.28.704q1.248.576 3.744 1.744t3.744 1.744q.128.064 1.168.48t1.744.768.864.64q.096.128.128.416-.288.416-.832.72t-1.392.608T28 9.824q-1.504.704-4.48 2.128t-4.448 2.128q-.192.096-.64.352t-.736.4-.8.336-.864.192-.896-.032Q7.296 11.68 6.944 11.52q-.128-.064-2.016-.88T1.664 9.152.128 8.192Q0 8.064 0 7.776"/></svg>