<svg version="1.1" xmlns="http://www.w3.org/2000/svg" x="0" y="0" width="32" height="32" viewBox="-3.5 0 32 32" xml:space="preserve"><path d="M3.668 30.368v-24.8h2.944q0-.928.016-1.248C6.644 4 6.681 3.771 6.756 3.312s.197-.779.368-.96q.256-.271.784-.528.528-.256 1.296-.256t1.296.256.768.512.368.976c.128.72.128.816.128 1.008v1.248h1.76V4.32q0 0 .128-1.008c.128-1.008.208-.998.368-.976q.238.032.768-.512.529-.544 1.296-.256a3.4 3.4 0 0 1 .992.128 4 4 0 0 1 .688.272q.272.144.465.544t.271.592q.08.192.129.784a13 13 0 0 1 .047.784v.896h1.729v-.896q0 0 .048-.784t.128-.784.271-.592q.193-.592.465-.544t.688-.272c.416-.32.608-.256.992-.128q.768 0 1.297.256.527.255.768.512.24.256.367.976.129.72.129 1.008v1.248H28.5v24.8zm2.08-5.664v3.584h4.448v-3.584zm0-.704h4.448v-3.809H5.748zm0-4.512h4.448v-4.16H5.748zm0-4.832h4.448v-3.584H5.748zM8.021 8.16q0 1.056 1.184 1.056 1.185 0 1.184-1.056V4q0-1.056-1.184-1.056T8.021 4zm2.847 16.544v3.584h4.864v-3.584zm0-.704h4.864v-3.809h-4.864zm0-4.512h4.864v-4.16h-4.864zm0-4.832h4.864v-3.584h-4.864zM14.9 8.16q0 1.056 1.184 1.056 1.217 0 1.217-1.056V4q0-1.056-1.217-1.056Q14.9 2.944 14.9 4zm1.504 16.544v3.584h4.863v-3.584zm0-.704h4.863v-3.809h-4.863zm0-4.512h4.863v-4.16h-4.863zm0-4.832h4.863v-3.584h-4.863zM21.78 8.16q0 1.056 1.216 1.056 1.184 0 1.184-1.056V4q0-1.056-1.184-1.056Q21.78 2.944 21.78 4zm.16 16.544v3.584h4.479v-3.584zm0-.704h4.479v-3.809H21.94zm0-4.512h4.479v-4.16H21.94zm0-4.832h4.479v-3.584H21.94z"/></svg>