<svg version="1.1" xmlns="http://www.w3.org/2000/svg" x="0" y="0" width="32" height="32" viewBox="-1.5 0 32 32" xml:space="preserve"><path d="M2.958 7.648q.064-.544.48-1.024l3.84-3.84q.448-.384.672.128l3.104 5.824q.256.512-.16.992l-1.408 1.408q-.384.384-.448.992 0 .96.992 2.464t1.952 2.561l.992 1.023q.448.448 1.153 1.104.703.656 2.319 1.728c1.616 1.072 1.926 1.072 2.544 1.072q.608 0 1.024-.416L21.679 20q.448-.449.959-.128l5.601 3.296q.224.128.256.336a.41.41 0 0 1-.128.368l-3.84 3.84q-.48.416-1.023.479-1.569.225-3.537-.432A16 16 0 0 1 16.32 26.015 44 44 0 0 1 13.2 23.808q-1.44-1.12-2.304-1.92l-.832-.801q-.32-.32-.848-.88C8.688 19.647 8.249 19.099 7.374 18A32 32 0 0 1 5.102 14.784q-.96-1.568-1.664-3.568-.703-2-.48-3.568"/></svg>