<svg version="1.1" xmlns="http://www.w3.org/2000/svg" x="0" y="0" width="32" height="32" viewBox="2 0 32 32" xml:space="preserve"><path d="M-1.84 5.632q0-.64.416-1.056c.416-.416.63-.416 1.056-.416h7.52q.511 0 .912.304a1.42 1.42 0 0 1 .528.816l.768 3.136h21.567l.225-.672q.32-1.024 1.376-1.024.288 0 .416.064.479.128.768.512C34.001 7.68 34 7.84 34 8.16q0 .16-.064.416L30.16 21.152q-.128.48-.512.768c-.384.288-.545.288-.864.288H10.896a1.42 1.42 0 0 1-.912-.319 1.5 1.5 0 0 1-.528-.801L6 7.072H-.368q-.608 0-1.04-.416C-1.84 6.24-1.84 6.037-1.84 5.632m11.904 5.696 1.984 7.936h15.648l.063-.287 2.305-7.648h-20zm1.344 15.488q0-1.216.88-2.08a2.9 2.9 0 0 1 2.096-.864q1.216 0 2.08.864t.864 2.08c0 1.216-.288 1.504-.864 2.08q-.865.864-2.08.863c-1.215-.001-1.509-.287-2.096-.863q-.88-.864-.88-2.08m2.08-12.992H18.8v2.943h-4.673zm7.84 2.944.032-2.943h5.184l-.768 2.943zm1.184 10.048q0-1.216.881-2.08.88-.864 2.096-.864c1.216 0 1.504.288 2.08.864s.863 1.27.863 2.08-.287 1.504-.863 2.08-1.27.863-2.08.863-1.51-.287-2.096-.863q-.88-.864-.881-2.08"/></svg>