<svg version="1.1" xmlns="http://www.w3.org/2000/svg" x="0" y="0" width="32" height="32" viewBox="0.664 -2.528 32 32" xml:space="preserve"><path d="M-2.792 18.208q0-3.328 2.352-5.696c2.352-2.368 3.451-2.368 5.648-2.368l.032.032a2 2 0 0 0-.016-.224A2 2 0 0 1 5.208 9.76q0-3.775 2.64-6.432Q10.488.672 14.232.672q3.296 0 5.792 2.112t3.072 5.312h.544q3.743 0 6.384 2.656c2.641 2.656 2.641 3.915 2.641 6.432q0 3.777-2.641 6.433c-2.641 2.656-3.889 2.655-6.384 2.655a1.7 1.7 0 0 1-.384-.031v.031H4.759v-.032q-3.167-.16-5.36-2.496-2.191-2.335-2.191-5.536"/></svg>