<svg version="1.1" xmlns="http://www.w3.org/2000/svg" x="0" y="0" width="32" height="32" viewBox="2 0 32 32" xml:space="preserve"><path d="M-1.904 24.576V12.672q0-.416.416-.416h5.632V8.128q0-.448.416-.448h3.136v16.448q0 .448-.384.448zM1.584 21.92h2.144q.416 0 .416-.447V14.88H2q-.416 0-.416.448zm7.2 2.656V12.672q0-.416.416-.416h3.136v11.872q0 .448-.384.448zm0-14.24V8.128q0-.448.384-.448h3.168v2.208q0 .448-.384.448zm4.768 14.24V12.672q0-.416.416-.416h9.217v16.128q0 .416-.416.416h-9.217l.032-2.208q0-.448.384-.447h5.633v-1.568zm3.519-2.656h2.145q.385 0 .385-.447V14.88h-2.145q-.384 0-.385.448zm7.328 4.672q0-.448.416-.447h5.633v-1.568h-6.049V12.672q0-.416.416-.416H34v16.128q0 .416-.384.416h-9.217zm3.489-4.672h2.145q.416 0 .416-.447V14.88h-2.145q-.416 0-.416.448z"/></svg>