<svg xmlns="http://www.w3.org/2000/svg" version="1.1" width="128" height="128"><path d="M75.78 56.9c-3.68 0-6.584 3.163-6.584 7.1s2.97 7.1 6.584 7.1c3.68 0 6.584-3.163 6.584-7.1s-2.97-7.1-6.584-7.1m-23.56 0c-3.68 0-6.584 3.163-6.584 7.1s2.97 7.1 6.584 7.1c3.68 0 6.584-3.163 6.584-7.1.064-3.937-2.905-7.1-6.584-7.1"/><path d="M107.215 0H20.72C13.426 0 7.488 5.938 7.488 13.232v86.496c0 7.294 5.938 13.232 13.232 13.232h73.198l-3.42-11.812 8.261 7.617 7.81 7.164L120.513 128V13.232C120.448 5.938 114.51 0 107.215 0M82.3 83.59s-2.324-2.775-4.26-5.163C86.494 76.038 89.722 70.81 89.722 70.81c-2.647 1.743-5.164 2.97-7.423 3.808-3.228 1.356-6.326 2.195-9.36 2.776-6.197 1.162-11.877.839-16.718-.065-3.68-.71-6.842-1.678-9.489-2.775-1.484-.581-3.098-1.291-4.712-2.195-.193-.129-.387-.194-.58-.323-.13-.064-.194-.129-.259-.129A23 23 0 0 1 39.375 70.81s3.098 5.1 11.296 7.552c-1.937 2.453-4.325 5.293-4.325 5.293C32.08 83.203 26.659 73.908 26.659 73.908c0-20.59 9.295-37.309 9.295-37.309 9.295-6.907 18.073-6.713 18.073-6.713l.646.775C43.054 33.953 37.76 39.052 37.76 39.052s1.42-.775 3.808-1.807c6.907-3.034 12.394-3.809 14.653-4.067.387-.064.71-.129 1.097-.129a54.6 54.6 0 0 1 13.039-.13c6.132.71 12.716 2.518 19.43 6.133 0 0-5.1-4.841-16.073-8.133l.903-1.033s8.843-.194 18.074 6.713c0 0 9.295 16.718 9.295 37.31 0-.065-5.422 9.23-19.687 9.682"/></svg>