<svg version="1.1" xmlns="http://www.w3.org/2000/svg" x="0" y="0" width="32" height="32" viewBox="-2 0 32 32" xml:space="preserve"><path d="M2 18.688a13.4 13.4 0 0 1 .672-4.255q.672-2.016 1.552-3.296A14.4 14.4 0 0 1 6.288 8.753Q7.472 7.649 8.112 7.217a17 17 0 0 1 1.216-.752q.32-.16.944-.48c.624-.32.741-.384.976-.512a18 18 0 0 0 .912-.544 11 11 0 0 0 1.104-.8Q14.608 3.041 14.863.513q2.337 2.815 3.393 3.52.8.543 2.352 1.248 1.552.704 2.353 1.184.609.352 1.151.752.544.398 1.728 1.551c1.184 1.153 1.456 1.579 2 2.432q.816 1.28 1.488 3.36A14.2 14.2 0 0 1 30 18.943q0 5.954-4.08 9.761t-9.809 3.808A14.1 14.1 0 0 1 9.184 30.737Q5.968 28.96 3.984 25.76T2 18.688m6.08 4.832q-.064 2.017 1.344 2.977.992.671 3.008.672 1.313 0 3.12-.943a67 67 0 0 0 3.36-1.873q1.552-.927 2.256-.896.735.031 2.48 1.792 1.743 1.76 2.256 1.792.639.032 1.072-.272.43-.303 1.008-1.136 1.055-1.568 1.056-3.743a3.4 3.4 0 0 0-.479-1.744q-.48-.817-1.504-.816-.705 0-2.945 1.504-2.238 1.504-3.008 1.536-.703 0-1.951-.88a34 34 0 0 0-2.832-1.776q-1.585-.896-3.152-.896-2.08.032-3.568 1.439Q8.112 21.664 8.08 23.52m6.561 5.76q-.385.32 0 .64 1.47 1.344 5.279.992a5.6 5.6 0 0 0 1.52-.368q.785-.304 1.185-.56t.528-.385q.127-.128.127-.512-.095-.384-.447-.096-1.312 1.024-3.969 1.023-2.399 0-3.52-.896a.45.45 0 0 0-.256-.063q-.16.002-.447.225m2.879-1.664q.224.257.896-.353a2 2 0 0 0 .256-.191q.192-.16.256-.208c.064-.048.129-.085.256-.16q.192-.112.32-.144c.128-.032.208-.043.368-.064s.325-.032.496-.032q.511 0 .832.144.321.145.399.257a4 4 0 0 1 .24.399q.161.32.24.368c.079.048.133.026.24-.016q.383-.223.224-.64-.288-.833-.704-1.088-.384-.29-1.376-.289-.831 0-1.312.192-.544.224-1.408 1.024-.478.386-.223.801"/></svg>