<svg xmlns="http://www.w3.org/2000/svg" width="32" height="32" viewBox="-6 0 32 32" xml:space="preserve"><path d="M6.256 27.616q0-2.432 1.824-3.584a10 10 0 0 1 1.728-.929q3.649-1.567 3.904-1.728a21 21 0 0 0-1.728-2.176 260 260 0 0 1-1.92-2.272Q6.576 12.703 7.056 9.023 7.28 7.265 8.4 6.112q.415-.447 1.344-1.024a53 53 0 0 1 1.44-.8 42 42 0 0 0 .721-.304 128 128 0 0 1 .943-.4l1.504-.672 2.209-.96q1.855-.8 2.752-1.28.64-.351.799.192 0 .351-.863.8Q17.297 2.944 17.2 5.312a7.7 7.7 0 0 0 .16 1.84 13 13 0 0 0 .4 1.504q.208.592.816 1.472.607.88.863 1.2.257.32 1.104 1.28a61 61 0 0 1 1.008 1.152 78 78 0 0 0 .929 1.04q.735.816 1.055 1.2.321.384.896 1.216.577.833.832 1.472.256.64.496 1.553a7.3 7.3 0 0 1 .24 1.871q0 1.217-.416 2.177-.385 1.024-.912 1.647c-.527.623-.859.838-1.52 1.265a28 28 0 0 1-1.696.96 21 21 0 0 1-1.952.863q-.513.194-1.137.48c-.624.286-.655.299-.719.32L14.8 31.072l-1.151.576q-1.026.51-1.601.672-2.72.67-4.256-.769C6.256 30.112 6.256 29.28 6.256 27.616"/></svg>