<svg xmlns="http://www.w3.org/2000/svg" width="32" height="32" viewBox="-3 0 32 32" xml:space="preserve"><path d="M2.632 15.936q0-3.425.928-6.464Q4.455 6.528 6.216 4.384a11.8 11.8 0 0 1 4.32-3.264q2.592-1.152 5.696-1.152 4.096 0 6.944 1.952a12 12 0 0 1 4.353 5.024q1.47 3.04 1.471 6.272 0 2.976-1.505 3.841-1.503.863-4.223.863H9.736q0 2.72.96 4.736.928 2.08 2.432 3.072 1.599 1.055 3.393 1.056 1.311 0 2.271-.32.991-.32 1.984-1.056.99-.705 1.791-1.504c.801-.799 1.238-1.27 2.112-2.209q.48-.512 1.504-.512 1.089 0 1.728.672.673.673.673 1.856 0 1.024-.736 2.496-.672 1.376-2.239 2.72-1.473 1.312-3.713 2.176-2.27.864-5.152.864-6.688 0-10.399-4.319Q2.632 23.296 2.632 15.936M9.736 13.44H22.28q-.224-4-1.92-6.016Q18.728 5.441 16.007 5.44q-2.624 0-4.256 2.016Q10.089 9.472 9.736 13.44"/></svg>