<svg version="1.1" xmlns="http://www.w3.org/2000/svg" x="0" y="0" width="32" height="32" viewBox="-2.5 0 32 32" xml:space="preserve"><path d="M2.322 28.032a14 14 0 0 1 .384-2.112Q3.057 24.48 5.01 14.704 6.961 4.928 7.282 3.52 7.666 1.856 8.05 1.2 8.434.543 9.298.256q.864-.288 2.784-.288h7.712q1.888 0 4.319.032t3.713.032q1.312 0 1.6 1.44.32 1.536-.736 2.944-.96 1.28-2.592 1.28H13.266l-1.6 7.456 11.264.096q1.408 0 1.729 1.44.319 1.44-.672 2.688-.864 1.056-2.24 1.056H10.226L8.69 26.368h13.824q2.048 0 2.448 1.392c.4 1.392.085 1.861-.544 2.801q-.944 1.407-2.16 1.407H4.562q-.96 0-1.52-.544t-.688-1.472a8.2 8.2 0 0 1-.032-1.92"/></svg>