<svg xmlns="http://www.w3.org/2000/svg" width="32" height="32" viewBox="-2.5 0 32 32" xml:space="preserve"><path d="M2.715 9.888q0-1.28.48-1.856a1.75 1.75 0 0 1 .832-.672q.576-.288 1.504-.288H8.54q.48 0 .832-.353a1.14 1.14 0 0 0 .352-.832q0-.672-.032-1.408V2.592q0-.8.384-1.408.48-.672 1.6-.992Q12.027 0 13.371 0h.608q1.888.064 3.136.544 1.217.512 1.439 1.984a41 41 0 0 1 1.537-.032q1.696 0 2.848.16 3.103.384 4.127.768 1.345.416 1.697 2.144.319 1.76.576 6.72.159 2.848.16 4.704 0 1.407-.098 2.271-.51 5.505-1.375 8.129-.449 1.344-.896 2.191c-.447.847-.592 1.019-.879 1.359q-.433.514-1.168.736-.738.224-1.361.272c-.623.048-1.038.05-1.87.05q-3.457 0-4.656-.816-1.2-.815-1.2-3.408 0-1.44.304-2.287.304-.848 1.057-1.2a4.4 4.4 0 0 1 1.488-.416 20 20 0 0 1 1.279-.032h.896q.128 0 .176.049.047.047.016.159a2 2 0 0 1-.08.24 2.7 2.7 0 0 0-.145.769q0 .287.064.592.064.303.033.384-.033.08-.225.079h-.641q.001 0-.32.017-.32.016-.32.048c0 .032-.09.049-.271.08q-.272.048-.256.128.018.081-.176.192-.191.111-.127.288a.46.46 0 0 1-.033.368q0 .448.129.735a2.5 2.5 0 0 0 .24.448q.111.16.574.225a6 6 0 0 0 .705.063h1.039q1.826 0 2.336-.433.513-.431.514-2.031 0-2.432-.594-3.28-.591-.848-1.807-1.008-2.815-.288-3.809-.64-1.696-.64-1.695-3.809 0-.064-.08-.064t-.08.064q0 2.144-.576 3.84l-.256.768q-.351.802-1.184.832h-.192q-.768 0-1.728-.256Q8.187 22.177 5.915 21.184q-.768-.352-1.184-1.279-.544-1.12-1.136-4.112t-.752-4.272Q2.715 10.464 2.715 9.888M2.907 6.08v-.064L8.763.256q0-.032.032-.032l-.096.192q-.352.64-.352 1.536 0 .704.032 3.296 0 .32-.32.32H5.083q-1.089 0-1.888.352a4 4 0 0 1-.288.16m18.177 9.28a10.4 10.4 0 0 1 1.471-.096q1.44.032 2.592.576 0-2.72-1.951-2.784H23.1q-.96 0-1.408.64-.482.672-.608 1.664"/></svg>