<svg version="1.1" xmlns="http://www.w3.org/2000/svg" x="0" y="0" width="32" height="32" viewBox="4 0 32 32" xml:space="preserve"><path d="M-4.385 19.968h3.808q.16 1.28.944 2.048.785.769 2.064.769 1.536 0 2.448-1.04c.912-1.04.912-1.562.912-2.608q0-1.536-.896-2.528-.896-.991-2.4-.991-1.216 0-2.08.784t-1.632.784q-1.696 0-2.56-.063a906 906 0 0 1 .912-5.136 312 312 0 0 0 .912-5.264h10.56v3.136H.832a116 116 0 0 0-.768 4.288H.16q.544-.672 1.616-1.024a6.7 6.7 0 0 1 2.096-.352q3.616 0 5.12 3.296.768-1.92 2.304-3.008t3.552-1.088a6.8 6.8 0 0 1 2.913.624q1.344.624 2.111 1.328c.767.704 1.184 1.173 2.016 2.112a2 2 0 0 1 .145.16 1 1 0 0 0 .128.144l.144.144a56 56 0 0 1 1.601-1.776q.48-.496 1.472-1.296.993-.8 1.984-1.104C28.353 12.003 28.768 12 29.6 12q2.88 0 4.64 1.936C36 15.872 36 16.843 36 18.784q0 2.975-1.761 4.991-1.76 2.017-4.704 2.017-3.712 0-7.232-4.192-.222.225-1.248 1.232-1.023 1.009-1.359 1.264a25 25 0 0 1-1.184.816q-.848.56-1.664.736a8.8 8.8 0 0 1-1.84.176q-2.016 0-3.552-1.057T9.088 21.824Q7.104 25.92 2.591 25.92q-3.04 0-5.008-1.52t-1.968-4.432m16.48-.96q0 1.344.816 2.176t2.16.832q2.4 0 4.96-3.039a80 80 0 0 0-1.535-1.553q-.45-.432-1.521-1.056-1.072-.624-2.032-.624-1.248 0-2.048.992a3.52 3.52 0 0 0-.8 2.272m12.448 0A23 23 0 0 0 26 20.464q.592.528 1.567 1.04c.975.512 1.307.512 1.968.512q1.377 0 2.16-.88t.784-2.256q0-1.344-.815-2.239-.818-.896-2.16-.896a3.6 3.6 0 0 0-1.568.368q-.768.369-1.168.688-.401.321-1.2 1.152c-.799.831-.875.905-1.025 1.055"/></svg>