<svg version="1.1" xmlns="http://www.w3.org/2000/svg" x="0" y="0" width="32" height="32" viewBox="1 0 32 32" xml:space="preserve"><path d="M-.664 17.92q0-3.328 2.336-5.664T7.336 9.92c3.329 0 4.106.779 5.664 2.336q2.336 2.336 2.336 5.664c0 3.328-.779 4.107-2.336 5.664Q10.664 25.92 7.336 25.92c-3.328 0-4.106-.778-5.664-2.336Q-.664 21.249-.664 17.92m17.664 0q0-3.328 2.336-5.664T25 9.92c3.329 0 4.106.779 5.664 2.336Q33 14.591 33 17.92c0 3.329-.779 4.107-2.336 5.664Q28.328 25.921 25 25.92c-3.328-.001-4.107-.778-5.664-2.336Q17 21.249 17 17.92"/></svg>