<svg xmlns="http://www.w3.org/2000/svg" width="32" height="32" viewBox="2.5 0 32 32" xml:space="preserve"><path d="M-2.908 14.176q0-3.36 2.448-5.744T5.444 6.048q2.72 0 4.88 1.536c2.16 1.536 2.448 2.347 3.024 3.968L15.46 9.504l5.056 4.864L34.5.096v12.96l-8.545 6.592 1.089 1.151L15.428 32.096 5.316 22.271Q1.892 22.207-.508 19.839c-2.4-2.368-2.4-3.465-2.4-5.663m1.184 0q0 2.88 2.08 4.896c2.08 2.016 3.061 2.016 5.024 2.016A7.7 7.7 0 0 0 7.46 20.8l7.04 6.24L33.22 12.32l.032-9.664L14.756 21.729l-2.88-4.672a6.8 6.8 0 0 0 .64-2.881q0-2.847-2.096-4.88T5.38 7.264q-2.944 0-5.024 2.032t-2.08 4.88m1.536.064q0-2.24 1.584-3.824T5.22 8.832c2.24 0 2.768.522 3.824 1.568q1.584 1.568 1.584 3.84 0 2.24-1.584 3.824T5.22 19.648c-2.24 0-2.768-.528-3.824-1.584Q-.188 16.48-.188 14.24"/></svg>