<svg xmlns="http://www.w3.org/2000/svg" width="32" height="32"><path d="M0 15.808Q0 12.544 1.28 9.6 3.808 3.648 9.76 1.12q2.944-1.28 6.208-1.28t6.208 1.28q5.888 2.496 8.48 8.48 1.28 3.04 1.28 6.208t-1.28 6.208q-2.592 6.016-8.48 8.544-2.944 1.28-6.208 1.28T9.76 30.56Q3.808 28 1.28 22.016 0 19.072 0 15.808m2.496 0q0 4.512 2.688 8.064 2.656 3.488 6.944 4.96v-2.56q0-1.92 1.28-2.784-.64-.032-1.504-.224Q10.272 22.976 9.12 22.24 6.208 20.48 6.208 15.872q0-2.4 1.6-4.096Q7.072 9.888 7.968 7.68h.64q.32 0 .8.16 1.248.384 2.784 1.408 1.952-.512 3.84-.512t3.872.512q1.248-.832 2.336-1.28 1.024-.384 1.472-.32l.384.032q.864 2.208.16 4.096 1.6 1.696 1.6 4.096 0 3.584-1.76 5.408-.96 1.024-2.528 1.6-1.312.48-2.912.608 1.312.928 1.312 2.784v2.56q4.128-1.472 6.816-5.024 2.624-3.52 2.624-8 0-2.72-1.056-5.248Q27.328 8.128 25.472 6.272 23.68 4.48 21.184 3.424 18.624 2.336 15.968 2.336q-2.624 0-5.248 1.088Q8.32 4.448 6.432 6.272 4.64 8.128 3.552 10.56q-1.056 2.528-1.056 5.248"/></svg>