<svg version="1.1" xmlns="http://www.w3.org/2000/svg" x="0" y="0" width="32" height="32" viewBox="-5.5 0 32 32" xml:space="preserve"><path d="M5.828 26.271q0-2.783 2.848-4.959 2.847-2.177 6.88-2.177h1.728q-1.344-1.28-1.345-2.752 0-.928.513-1.856a10 10 0 0 1-.929.032q-3.327 0-5.439-2.08T7.972 7.359q0-2.911 2.624-5.088C13.22.094 14.34.095 16.58.095h9.92l-2.208 1.6h-3.136q1.504.576 2.352 2.176.848 1.599.848 3.552 0 2.976-2.815 5.184-1.184.928-1.536 1.472c-.352.544-.352.811-.352 1.344q0 .608.863 1.536a12.6 12.6 0 0 0 1.729 1.567q1.952 1.377 2.704 2.816.752 1.441.752 3.616 0 2.88-2.624 5.008c-2.624 2.128-4.117 2.128-7.104 2.128q-4.257 0-7.201-1.6Q5.829 28.897 5.828 26.271m3.584-1.055q0 2.208 1.872 3.761 1.872 1.551 4.655 1.551 3.808 0 5.521-1.407c1.713-1.407 1.712-2.187 1.712-3.744a3.5 3.5 0 0 0-.128-1.024 5 5 0 0 0-.224-.656 2.4 2.4 0 0 0-.385-.607q-.255-.304-.447-.512c-.192-.208-.336-.314-.624-.528s-.507-.373-.656-.479a77 77 0 0 0-.8-.561 25 25 0 0 0-.832-.56 8.3 8.3 0 0 0-2.464-.384h-.128q-2.784 0-4.896 1.504-2.175 1.534-2.176 3.646M11.523 7.328q.353 2.528 1.937 4.352 1.584 1.823 3.505 1.856h.127q1.791 0 2.881-1.664.864-1.344.863-3.168a10 10 0 0 0-.064-1.088q-.32-2.529-1.903-4.288C17.286 1.569 16.645 1.547 15.365 1.504h-.128q-1.826 0-2.912 1.632-.864 1.312-.864 3.136a9 9 0 0 0 .062 1.056"/></svg>