<svg version="1.1" xmlns="http://www.w3.org/2000/svg" x="0" y="0" width="32" height="32" viewBox="-14.808 -7.832 32 32" xml:space="preserve"><path d="M-2 26.266q0-2.783 2.851-4.963 2.85-2.177 6.885-2.178h1.73Q8.119 17.845 8.119 16.371q0-.928.512-1.856a10 10 0 0 1-.929.033q-3.329 0-5.443-2.083Q.145 10.385.145 7.34q0-2.914 2.625-5.091Q5.4.07 8.761.071h9.927l-2.209 1.601h-3.137q1.506.576 2.353 2.179.85 1.6.85 3.555 0 2.977-2.819 5.188-1.185.927-1.537 1.472c-.352.545-.353.812-.353 1.345q.001.608.865 1.538a12.8 12.8 0 0 0 1.729 1.567q1.953 1.378 2.707 2.818.752 1.444.751 3.619 0 2.883-2.625 5.012-2.625 2.131-7.11 2.129-4.26.002-7.205-1.6Q-2 28.893-2 26.266m3.586-1.057q0 2.212 1.874 3.764 1.874 1.554 4.659 1.553 3.812-.001 5.524-1.408 1.715-1.409 1.714-3.746 0-.61-.128-1.025a6 6 0 0 0-.223-.658 2.5 2.5 0 0 0-.386-.607 15 15 0 0 0-.446-.512 5 5 0 0 0-.626-.529 60 60 0 0 0-.657-.48Q12.668 21.403 12.09 21a26 26 0 0 0-.833-.561 8.4 8.4 0 0 0-2.465-.383Q5.909 20.024 3.749 21.56t-2.163 3.649m2.115-17.9q.352 2.529 1.938 4.355 1.587 1.824 3.507 1.857 1.89.064 3.011-1.666t.799-4.259q-.32-2.53-1.904-4.292Q9.465 1.544 7.543 1.479 5.623 1.416 4.501 3.114q-1.12 1.696-.8 4.195m17.774.769V6.476h6.404V.071h1.602v6.405h6.438v1.602H29.48v6.437h-1.602V8.078z"/></svg>