<svg version="1.1" xmlns="http://www.w3.org/2000/svg" x="0" y="0" width="32" height="32" viewBox="-3.5 0 32 32" xml:space="preserve"><path d="M4.052 16.384v-3.296q0-2.784 2.752-6.4 2.753-3.616 5.472-5.12Q14.772.161 18.26.16q1.408 0 2.832.32c1.424.32 1.861.544 2.736.992a5.7 5.7 0 0 1 2.128 1.856q.816 1.184.815 2.72 0 .416-.063.784a4 4 0 0 1-.224.768 12 12 0 0 1-.289.672 3.6 3.6 0 0 1-.447.672q-.32.4-.448.592c-.128.192-.272.336-.56.624q-.434.432-.528.544c-.094.112-.261.261-.593.56a25 25 0 0 0-.559.512h5.375q.064 2.304.064 3.456 0 8.096-1.344 10.432-1.12 1.951-3.024 3.456c-1.904 1.505-2.63 1.749-4.08 2.239q-1.248.48-1.792.48h-2.688q-.096 0-1.537-.544Q10.194 29.6 10.195 25.728q0-.128.016-.353c.016-.225.016-.256.016-.319Q5.938 22.847 4.467 18.175q-.415-1.342-.415-1.791m4.672-4.16q0 1.28.304 2.592c.304 1.312.507 1.717.912 2.528s.965 1.473 1.68 1.984 1.531.768 2.449.768q.384 0 1.264-.479.879-.48 1.584-.48.448 0 1.632.337 1.185.335 1.185.623 0 .672-.832.672-4.16 0-4.16 2.433 0 1.856 1.344 2.8c1.344.944 1.994.943 3.296.943a8.5 8.5 0 0 0 2.944-.527q1.439-.528 2.336-1.584 1.344-1.6 1.344-5.248 0-.608-.032-1.775a72 72 0 0 1-.032-1.745q0-1.536.16-2.56h-6.176a7 7 0 0 0-.032.736q0 .351.032 1.088c.032.737.032.864.032 1.12q0 1.12-.257 1.792a3 3 0 0 1-.543.031q-1.536 0-2.561-1.039C15.572 16.195 15.445 15.746 15.189 14.85S14.804 13.003 14.804 12q0-1.44.368-2.912A6.7 6.7 0 0 1 16.548 6.4q1.009-1.216 2.479-1.216.321 0 .672.096-.127.704-.127 1.088 0 1.12.607 1.856c.607.736.971.736 1.697.736s1.333-.245 1.823-.736q.736-.736.736-1.856 0-1.313-.992-2.24a5.4 5.4 0 0 0-2.24-1.28 9.3 9.3 0 0 0-2.527-.352q-4.32 0-7.136 2.72t-2.816 7.008"/></svg>