<svg xmlns="http://www.w3.org/2000/svg" width="32" height="32" viewBox="-3.5 0 32 32" xml:space="preserve"><path d="M4.18 25.344q0-.705.384-2.049.735-2.783 2.768-5.057 2.032-2.27 4.72-3.295Q9.523 12.927 9.524 9.791q0-2.752 2-4.672t4.752-1.92 4.752 1.92 2 4.672q0 3.104-2.464 5.12 3.392 1.216 5.663 4.063 2.273 2.848 2.272 6.336 0 2.945-2.336 3.393-.095.32-.416.832-.192.512-.752.912-.56.398-1.552.656a42 42 0 0 1-1.584.383 24 24 0 0 1-1.809.289q-1.216.159-1.248.16-.063 0-.224.031A1 1 0 0 1 18.356 32h-3.841q-1.632-.001-4.127-.529C7.893 30.943 7.775 30.645 7.54 30.047a3.3 3.3 0 0 1-.8-1.344 2.7 2.7 0 0 1-1.344-.672Q4.18 27.55 4.18 25.344"/></svg>