<svg version="1.1" xmlns="http://www.w3.org/2000/svg" x="0" y="0" width="32" height="32" viewBox="-1 0 32 32" xml:space="preserve"><path d="M1 27.28q-.096-1.137.224-1.904 1.248-4.48 2.944-7.647Q7.815 10.816 14.184 6.464v-.448a22 22 0 0 0-3.792 2.096Q8.488 9.408 7.128 10.704a47 47 0 0 0-2.432 2.48q-1.071 1.184-1.616 1.92l-.544.736a10.7 10.7 0 0 1 .512-3.68q.576-1.792 1.44-3.008A20 20 0 0 1 6.232 7.008Q7.112 6.08 7.72 5.632l.608-.416q.128-.064.336-.176a20 20 0 0 1 .88-.432 18 18 0 0 1 1.392-.592 18 18 0 0 1 1.76-.544 14 14 0 0 1 2.048-.384 15 15 0 0 1 2.24-.064 10 10 0 0 1 2.352.368q2.048-1.504 4.112-2.336c2.064-.832 2.415-.864 3.12-.928l1.056-.096q1.6-.16 2.479.528.88.687.992 1.76a10 10 0 0 1-.016 2.176Q30.951 5.6 30.694 6.4l-.287.768-.16-.16q.67-1.824.656-2.992-.016-1.168-.561-1.808-.543-.64-1.168-.928T28.006.96l-.512-.064q-.128 0-.368.016c-.24.016-.501.064-1.024.16a12 12 0 0 0-1.567.4q-.783.255-1.937.8a13.7 13.7 0 0 0-2.207 1.312q2.207.353 3.936 1.344 1.728.993 2.752 2.256c1.024 1.263 1.264 1.75 1.744 2.72q.72 1.457.992 2.832.272 1.376.416 2.496c.144 1.12.133 1.344.111 1.792l-.031.705H12.488q-.096 1.343.336 2.336.431.992 1.088 1.455.656.465 1.312.721t1.135.287l.48.033q.128 0 .368-.017c.24-.017.442-.069.849-.176a4.5 4.5 0 0 0 1.104-.448q.495-.287.992-.912a3.6 3.6 0 0 0 .688-1.488h9.344a12 12 0 0 1-1.504 3.424q-.992 1.537-2.176 2.48c-1.184.943-1.621 1.174-2.496 1.633q-1.312.687-2.512 1.008t-2.176.512c-.976.192-1.168.203-1.553.224h-.607q-2.497 0-3.424-.192-1.92 1.505-4.048 2.353c-2.128.848-2.522.88-3.312.944L5.224 32q-1.472 0-2.48-.752Q1.736 30.495 1.416 29.456C1.096 28.417 1.064 28.037 1 27.28m2.416-.176q-.016.77.08 1.36c.096.59.149.698.256.912l.128.288q.128.096.352.256t1.072.432a5.6 5.6 0 0 0 1.824.256q.976-.015 2.624-.527c1.648-.512 2.246-.875 3.44-1.6q-.255-.065-.688-.176-.432-.113-1.616-.576Q9.704 27.263 8.68 26.72C7.656 26.177 7.288 25.851 6.552 25.2Q5.448 24.224 4.84 23.136a9.5 9.5 0 0 0-1.056 2.145q-.352 1.055-.368 1.823m9.04-13.568h8.479q.031-1.152-.367-2.016-.401-.864-1.024-1.248c-.623-.384-.827-.458-1.231-.608q-.609-.224-1.057-.256l-.447-.032a5 5 0 0 0-.48.032q-.287.031-1.056.256c-.769.225-.96.352-1.344.608q-.576.384-1.04 1.248t-.433 2.016"/></svg>