<svg xmlns="http://www.w3.org/2000/svg" width="32" height="32" viewBox="3.5 0 32 32" xml:space="preserve"><path d="M-5.647 8.704Q-.079 7.648 1.009 6.432q.864-.96 1.44-2.912.576.736.736 1.552t.032 1.264l-.16.416a10 10 0 0 1-.336.672q-.144.257-.24.432c-.096.175-.165.235-.304.352s-.245.208-.32.272q-.111.096-.512.352C.944 9.088.86 9.152.689 9.28q-1.12.863-1.072 2 .048 1.135.976 1.744.832.511 1.616-.192t1.68-2.496q.384-.8.592-2.112a10.7 10.7 0 0 1 .624-2.336Q5.521 4.864 6.609 4a2.8 2.8 0 0 1 1.456-.608 8 8 0 0 1 1.6-.032 10.5 10.5 0 0 0 1.648 0q.864-.063 1.92-.752 1.056-.687 2.144-2.064.16-.192.448-.496c.288-.304.597-.512 1.216-.928s1.248-.715 1.889-.896q.96-.273 2.367.032t2.752 1.424q-1.535-.672-2.88-.672c-1.345 0-1.616.16-2.159.48A7 7 0 0 0 17.617.544Q17.04 1.12 16.785 1.6l-.225.48a19 19 0 0 1-.912 1.968 13 13 0 0 1-.752 1.232q-.32.448-.8.72c-.48.272-.576.304-.768.368s-.533.154-1.024.272a46 46 0 0 0-1.216.304q-1.376.416-1.6 1.728-.192 1.152.704 1.696 1.024.575 2.624-.448Q14 9.152 14.72 8.336c.72-.816.805-1.013.976-1.408q.255-.592.88-1.264T18.223 4.48q1.377-.672 2.625-.912a15 15 0 0 1 2.656-.256q1.407-.016 2.143-.112Q31.951 2.176 33.52-.448q1.535-2.528 1.568-4.16.542 1.856.367 3.328t-.848 2.576T33.199 3.12c-.736.72-.928.837-1.312 1.072l-.576.352q-2.462 1.28-4.11 1.776-1.648.497-2.672.672a6.6 6.6 0 0 0-1.984.688q-3.296 1.76-1.664 4.96.672 1.312 1.969 1.424 1.295.112 2.479-.944a4.5 4.5 0 0 0 .448-.448q.255-.288.72-1.248a4.8 4.8 0 0 0 .496-1.952q.64 1.791.496 3.088-.145 1.296-.656 2.032l-.479.704q-1.153 1.217-1.937 1.712-.783.496-2.016.592-1.232.096-2.864-.479-2.751-.672-3.824-.656a3.83 3.83 0 0 0-1.968.56q-.896.513-1.376 1.36c-.48.847-.341 1.083-.064 1.552q.448.8 1.088.881t2.048-.688q1.248-.737 2.112-.944c.864-.207 1.302-.229 2.176-.271q2.785-.065 4.449 1.216a20 20 0 0 1 2.367 1.824q-1.28-.769-2.527-.976c-1.247-.207-1.537-.129-2.112.031q-.864.24-1.552.576c-.688.336-.795.453-1.008.688l-.32.32q-1.441 1.632-2.416 2.305-.976.671-1.696.655c-.72-.016-1.104-.165-1.872-.464a50 50 0 0 1-1.264-.544q-.944-.416-1.328-.512v-3.521q0-3.872-2.944-5.952-1.888-1.28-4.288-1.28-2.433 0-4.288 1.248-.64-.928-1.632-1.056v-2.4a2.28 2.28 0 0 0-.688-1.68 2.3 2.3 0 0 0-1.681-.689zm4.064 18.048v-5.184q0-2.08.608-3.168 1.28-2.273 4.288-2.272 2.208 0 3.536 1.392 1.328 1.393 1.328 3.504v4.32H1.713v2.145q0 1.535 1.6 1.535 1.44.001 1.6-1.567h3.264q0 1.984-1.312 3.36-1.376 1.375-3.552 1.375-3.008 0-4.288-2.271-.608-1.089-.608-3.169M1.713 22.88h3.2v-1.792q0-1.791-1.6-1.792-1.6 0-1.6 1.792zm8.384 6.368a7.7 7.7 0 0 0 .352-2.271 2 2 0 0 0-.096-.641 19 19 0 0 0 1.088.16q1.984.192 2.72 1.472.064.096.144.288c.08.192.128.373.224.736q.144.543-.016.992-.992-.768-2.096-.961-1.104-.191-1.712.033z"/></svg>