<svg xmlns="http://www.w3.org/2000/svg" width="32" height="32"><path d="M0 16Q0 11.648 2.144 7.968T7.968 2.144 16 0t8.032 2.144 5.824 5.824T32 16t-2.144 8.032-5.824 5.824T16 32 7.968 29.856 2.144 24.032 0 16m3.2 0q0 5.312 3.744 9.056T16 28.8t9.056-3.744T28.8 16 25.056 6.944 16 3.2 6.944 6.944 3.2 16m5.856 5.632q0 .992.688 1.68t1.68.688q1.056 0 1.824-.768t.768-1.824V12.8l6.4-1.184v6.656q-.48-.16-.896-.16-1.056 0-1.824.768t-.768 1.824q0 .992.672 1.68t1.664.688 1.776-.736.816-1.728V8l-9.28 1.6v9.6q-.48-.16-.896-.16-1.088 0-1.856.768t-.768 1.824"/></svg>