<svg version="1.1" xmlns="http://www.w3.org/2000/svg" x="0" y="0" width="32" height="32" viewBox="5.5 0 32 32" xml:space="preserve"><path d="M-4.291 16q0-5.177 3.662-8.838Q3.032 3.5 8.209 3.5q3.913 0 6.93 2.004 3.012 2.004 4.624 5.698.473 1.137 4.071 9.47.662 1.515 1.185 2.32c.347.537.861 1.007 1.546 1.419q1.026.616 2.511.681h.22q2.115 0 3.505-1.137 1.451-1.201 1.483-3.031 0-.852-.253-1.421-.253-.567-.931-1.011a7.3 7.3 0 0 0-1.279-.677 34 34 0 0 0-1.863-.647q-3.944-1.295-5.681-2.825t-1.736-4.277q0-2.872 1.815-4.593 1.814-1.72 4.939-1.721 4.01 0 6.03 3.631l-2.653 1.356Q31.253 6.782 29.138 6.782q-1.451 0-2.415.899-.963.9-.964 2.29 0 .41.065.773a1.5 1.5 0 0 0 .269.647q.204.283.378.505.172.22.553.458a9 9 0 0 0 .63.363 10 10 0 0 0 .789.332q.536.204.837.3c.301.096.532.167.994.314q.695.223 1.044.316 3.406 1.136 4.876 2.651 1.468 1.515 1.468 4.42 0 3.156-2.398 5.24-2.37 2.05-5.873 2.051h-.095q-3.156 0-5.082-1.467t-3.25-4.438l-.442-1.039-4.01-9.092Q15.47 9.874 13.213 8.391T8.21 6.908q-3.756 0-6.423 2.666Q-.881 12.244-.881 16c0 3.756.89 4.645 2.667 6.423q2.667 2.668 6.423 2.669 2.589 0 4.734-1.342a9.17 9.17 0 0 0 3.315-3.553l1.61 3.726a12.2 12.2 0 0 1-4.261 3.36A12.3 12.3 0 0 1 8.209 28.5Q3.032 28.499-.629 24.839-4.291 21.176-4.291 16"/></svg>