<svg xmlns="http://www.w3.org/2000/svg" width="32" height="32" viewBox="4.5 0 32 32" xml:space="preserve"><path d="M-3.98 23.2h.768q-.224-.448-.224-1.089 0-2.08 1.456-5.936c1.456-3.856 1.904-4.528 2.8-5.872Q1.845 8.735 3.508 8.735q1.44 0 1.44 1.088 0 1.664-2.304 6.368h2.624a27 27 0 0 1 1.696-4.032Q8.052 9.983 9.3 9.247t3.712-.736q.928 0 1.808.448.88.449.88 1.28c0 .831-.139 1.002-.416 1.344s-.678.582-1.2.72-.987.229-1.392.272a15 15 0 0 1-1.472.064h-.288q-.48.704-.896 1.856a7 7 0 0 1 1.184-.096q2.048 0 2.048 1.216 0 .288-.096.576-.512 1.888-2.816 1.888a9 9 0 0 1-1.6-.16q-.511 1.535-.672 2.336 1.664-.32 2.464-.32t1.376.369q.576.366.576 1.135 0 1.09-.752 1.824a3.8 3.8 0 0 1-1.712.992 8 8 0 0 1-2.048.256q-2.08 0-3.072-1.312-.64-.769-.64-1.984 0-.736.096-1.44.255-1.6.896-3.583H2.644q-.288.609-.832 1.776c-.544 1.167-.629 1.36-.8 1.744H.979l-.224.448a13 13 0 0 1 1.088-.064q1.888 0 1.888 1.28 0 1.632-1.248 2.353-1.248.72-2.976.72-2.08 0-2.72-1.248h-.767zm17.215-2.496q0-1.216.496-3.04c.496-1.824.688-2.272 1.072-3.168q.608-1.44 1.152-2.368c.544-.928.821-1.221 1.376-1.808q.832-.88 1.936-1.312c1.104-.432 1.595-.432 2.576-.432q1.6 0 2.783.624 1.185.624 1.185 2.064a3.8 3.8 0 0 1-.672 2.192q-.672.976-1.824.976-1.664 0-1.664-1.056 0-.192.112-.56a2.2 2.2 0 0 0 .111-.592q0-.416-.703-.416-.544 0-1.041.448-.495.448-.928 1.392a48 48 0 0 0-.576 1.296 35 35 0 0 0-.463 1.248Q17.139 18.881 17.14 20q0 .928.896.928.8 0 1.408-.783a4.5 4.5 0 0 0 .832-1.681q-1.344-.064-1.344-1.12 0-1.183.896-1.728t2.111-.544q1.664 0 2.08 1.12a2.4 2.4 0 0 1 .128.832q0 1.6-.912 3.393c-.912 1.793-1.339 2.123-2.192 2.784a6.1 6.1 0 0 1-3.84 1.312q-2.175 0-3.2-1.312-.767-.928-.768-2.497M23.764 23.2h1.344q-.576-.832-.576-2.112 0-2.528 1.568-6.528a34 34 0 0 1 1.04-2.368 9.5 9.5 0 0 1 1.185-1.776 4.4 4.4 0 0 1 1.823-1.328q1.072-.416 2.513-.416 3.84 0 3.84 3.68 0 1.6-.705 3.84a29 29 0 0 1-1.312 3.52q-1.183 2.465-2.336 3.488-1.472 1.311-3.808 1.312-2.304 0-3.232-1.312zm4.607-3.488h.097q-.192 1.12.704 1.12.735 0 1.375-1.216h-.063q.544-1.153 1.44-3.696.897-2.544.896-3.28 0-.768-.672-.768-.64 0-1.056.512-.577.832-1.664 3.808-.8 2.144-1.057 3.52"/></svg>