<svg version="1.1" xmlns="http://www.w3.org/2000/svg" x="0" y="0" width="32" height="32" viewBox="3 0 32 32" xml:space="preserve"><path d="M-3.368 16.992v-1.088q0-3.616 2.688-6.304C2.008 6.912 3.405 6.912 6.2 6.912q4.352 0 7.904 3.584.672.64 1.728 1.984l3.071 4.032q1.248 1.664 1.664 2.08 2.368 2.368 4.705 2.368 1.887 0 3.071-1.28 1.056-1.055 1.216-2.72a2.4 2.4 0 0 0 .032-.448A4.3 4.3 0 0 0 29.399 15.2q-.286-.993-1.056-1.824 0-.032-.032-.032-1.216-1.28-3.039-1.28-2.496 0-4.705 2.368l-2.72-3.552a22 22 0 0 0-.319-.416q1.76-1.92 3.615-2.736Q23 6.912 25.431 6.912q3.969 0 6.849 2.688h.031l.032.032Q35 12.288 35 16.512a13.6 13.6 0 0 1-.16 2.016 9.13 9.13 0 0 1-2.528 4.896q-1.95 1.984-4.8 2.528a13.4 13.4 0 0 1-1.983.159q-4.48 0-7.937-3.487Q16.856 21.887 15.8 20.48l-3.072-3.969q-1.248-1.663-1.664-2.08Q8.696 12.063 6.296 12.063a4 4 0 0 0-1.28.192q-.928.256-1.76 1.088-.928 1.024-1.152 2.272a4.3 4.3 0 0 0-.096.896q0 1.825 1.184 3.104l.064.063q1.248 1.28 3.104 1.28 2.528 0 4.704-2.399l2.688 3.52.288.384q-1.824 1.952-3.68 2.784c-1.856.832-2.624.833-4.16.833q-4.192 0-6.912-2.656v-.031q-2.016-2.017-2.496-4.896a7.7 7.7 0 0 1-.16-1.505"/></svg>