<svg xmlns="http://www.w3.org/2000/svg" width="32" height="32" viewBox="1.5 0 32 32" xml:space="preserve"><path d="M-1.893 19.616v-4.832a.8.8 0 0 1 .224-.56.75.75 0 0 1 .576-.24h8.48l-3.68 6.432h-4.8a.78.78 0 0 1-.576-.225.78.78 0 0 1-.224-.575m3.904 7.808 2.112 1.217zm.321-1.392a.8.8 0 0 1 .064-.624L12.124 8.512q.16-.288.48-.368c.32-.08.416-.027.608.08l2.08 1.184a.72.72 0 0 1 .4.496.84.84 0 0 1-.08.624L5.916 27.424q-.16.288-.496.368c-.336.08-.432.026-.624-.08l-2.08-1.216a.68.68 0 0 1-.384-.464m9.856-5.616 3.68-6.432h2.145l3.008 6.432zm2.496-20q.032-.288.192-.384.32-.16 1.136.992T18.3 4.736t1.984 3.36q.896 1.408 2.416 4.176c1.52 2.768 1.984 3.648 2.912 5.408s1.393 2.65 1.393 2.672q.351.609-.064 1.152a2.27 2.27 0 0 1-.992.768q-.576.258-.768.289-.193.032-.961-.225-.959-.48-6.079-12.576-.16-.352-.433-.976a62 62 0 0 0-.543-1.216q-.273-.592-.593-1.344A125 125 0 0 1 15.436 3.472a13.3 13.3 0 0 1-.688-2.288q-.097-.48-.064-.768M25.18 13.984h7.52q.32 0 .561.24a.77.77 0 0 1 .24.56v4.832q0 .319-.24.56c-.24.241-.348.24-.561.24h-4.256q-.128-.513-.256-.736l-.768-1.472a936 936 0 0 0-2.24-4.224m.416 10.127a.77.77 0 0 1 .416-.495l1.184-.608q.32-.16.672-.048c.352.112.406.219.512.433l.992 1.92q.384.768-.32 1.248l-.863.512a.98.98 0 0 1-.672.08.84.84 0 0 1-.545-.4l-1.279-1.984a.8.8 0 0 1-.097-.658m2.447 4.625q.017-.512.129-.672a4 4 0 0 1 .399-.448l.769-.288q1.95-.385 2.304 2.24.096 1.023-.032 2.432-.129-.384-1.408-.943-1.28-.561-1.76-1.232-.416-.578-.401-1.089"/></svg>