<svg version="1.1" xmlns="http://www.w3.org/2000/svg" x="0" y="0" width="32" height="32" viewBox="5.5 0 32 32" xml:space="preserve"><path d="M-5.412 17.408q0-1.12.064-3.36a4.9 4.9 0 0 1 1.536-.256h.576q.545.736 1.28 2.24c.735 1.504.821 1.653.992 1.952a23 23 0 0 0 .256-1.168q.192-.945.32-1.36c.128-.415.203-.667.352-1.168A8 8 0 0 1 .46 12.992 5.8 5.8 0 0 1 1.084 12q.896.16 1.472.16a2 2 0 0 0 .352-.032q.769 1.728 1.456 5.216.689 3.489 1.232 4.961a.6.6 0 0 1-.128-.033l-.096-.032q-.288 0-.832.176a9 9 0 0 1-.704.208A41 41 0 0 1 1.852 16.128q-.48.832-.48 2.849 0 2.016-.352 2.815l-.16-.063q-.255 0-.704.063a5 5 0 0 1-.672.063h-.576a29 29 0 0 0-1.824-2.848 1.1 1.1 0 0 0-.096.48q0 .287.08.832a6 6 0 0 1 .08.8l-.032.384q-.96.48-1.664.48a1.2 1.2 0 0 1-.32-.032q-.544-1.79-.544-4.543m11.36 2.432A7.3 7.3 0 0 1 6.204 18 5.2 5.2 0 0 1 7.1 16.176q.64-.848 1.504-.848.32 0 .896.16t.736.192a11.8 11.8 0 0 1 .288 2.591 8 8 0 0 1-.192 1.761q-.385-.128-1.216-.144-.832-.017-1.184-.113a5 5 0 0 0-.16 1.185q0 .672.32 1.185.32.512.96.512.288 0 .832-.16t.832-.16q.544 0 .736.448-1.344.512-2.624.512-1.472 0-2.176-.96c-.704-.96-.704-1.473-.704-2.497m1.856-.897.256-.031a.7.7 0 0 1 .256.064.7.7 0 0 0 .224.063l.224-.097a5 5 0 0 0 .064-.703 6 6 0 0 0-.16-1.28q-.703.8-.864 1.984m3.52 1.729q0-3.936 2.496-5.824a3.9 3.9 0 0 1 1.92.736q-.031.544-.256 2.145-.16 1.248-.16 2.08v.447a10 10 0 0 1-.928.064q-.256 0-1.376-.16a1.9 1.9 0 0 0-.16.736q0 .704.544 1.199a1.8 1.8 0 0 0 1.248.496q.832 0 1.312-.736.576.194.672.545-.704.671-2.016.672a4.25 4.25 0 0 1-2.24-.641q-1.056-.638-1.056-1.759m1.792-1.376q.128.192.448.192h.288q.288-.608.288-1.568 0-.416-.192-1.248a28 28 0 0 1-.32.801 15 15 0 0 0-.368.976 2.7 2.7 0 0 0-.144.847m3.168-.608q-.063-.832.736-.832.193 0 .576.033a8 8 0 0 0 .544.031 5 5 0 0 0 .097-.992q0-.927-.24-2.768c-.24-1.841-.24-2.149-.24-2.768q0-1.376.32-2.304.16.096.848.176c.688.08.891.314 1.296.784q-.192.833-.192 2.144 0 .64.129 2.592a34 34 0 0 1 .063 1.952q0 .64-.032 1.088h.192q.224 0 .288-.192c.064-.192.064-.261.064-.399s.042-.209.127-.209q.258.001.592.272.337.273.721.688c.384.415.416.447.48.512q-.289.224-1.297.288t-1.231.128a15 15 0 0 0-.032 1.152q0 .512.016 1.056.017.544.049 1.216.031.672.031 1.057a14 14 0 0 1-.736.063 11 11 0 0 0-.703.063v-.64a23 23 0 0 0-.096-1.823q-.129-1.408-.129-1.953-.191-.064-1.023-.111-.835-.049-1.218-.304m6.88-.256q0-.64.064-1.855a2 2 0 0 1 .639.16 10 10 0 0 1 .673.336 23 23 0 0 0 .575.304l-.031.864q0 1.887.288 3.712a2.14 2.14 0 0 0 .991-.736q.385-.512.529-1.327.144-.817.176-1.345c.032-.528.042-.827.063-1.424v-.353a1 1 0 0 0 .288.032q.64.065 1.568.8 0 .096.016.305c.016.209.016.24.016.304q0 .48-.127.96a4 4 0 0 1-.24.704 13 13 0 0 1-.465.8q-.352.577-.447.736-.481.383-1.088 1.344-.672.224-1.217.225-2.27-.002-2.271-4.546m6.4 3.457q.222-.193.768-.32 0-.096.031-.288a74 74 0 0 1 .225-1.808q.096-.689.4-1.889t.703-1.904a4.2 4.2 0 0 1 1.137-1.264 2.72 2.72 0 0 1 1.695-.56q1.089 0 2.433.768a5.7 5.7 0 0 1 .544 2.399q0 2.112-1.488 3.809c-1.488 1.697-2.191 1.855-3.6 2.176a27 27 0 0 0-.064 1.536q0 2.337.576 3.744-.255-.064-1.184-.063-.48 0-.704-.064-.288-.673-.528-3.072c-.24-2.399-.475-2.667-.944-3.2m2.879-.801q1.248-.32 2.097-1.536.848-1.216.848-2.528a3.5 3.5 0 0 0-.479-1.792q-.736.672-1.264 1.776-.53 1.104-.736 1.92a38 38 0 0 0-.466 2.16"/></svg>