<svg version="1.1" xmlns="http://www.w3.org/2000/svg" x="0" y="0" width="32" height="32" viewBox="3.5 0 32 32" xml:space="preserve"><path d="M-3.547 4.832a.36.36 0 0 1 .08-.304.46.46 0 0 1 .272-.176 25 25 0 0 0 .992-.208 53 53 0 0 0 .896-.208q0-.545.032-1.584c.032-1.039.032-1.21.032-1.552q.064-.384.416-.384.448 0 .448.448a97 97 0 0 0-.064 2.912 45 45 0 0 0 1.12-.224 21 21 0 0 0 1.12-.256q.576-.128 1.76-.32c1.184-.192 1.387-.235 1.792-.32Q18.213.448 30.758.352a.36.36 0 0 1 .303.144.41.41 0 0 1 .08.336q0 .351-.063 1.056a13 13 0 0 0-.063 1.056q1.344.097 4.096.352a.38.38 0 0 1 .287.144q.129.144.097.304a3599 3599 0 0 0-2.177 13.184 4511 4511 0 0 1-2.176 13.217q1.6.256 2.433.383.256.032.336.257c.08.225.048.288-.017.416a.33.33 0 0 1-.319.192h-.097a71 71 0 0 1-1.248-.209 67 67 0 0 0-1.248-.207 8 8 0 0 1-.159.991q-.064.288-.32.353-.031.031-.128.031h-.128a178 178 0 0 0-19.2-3.744 266 266 0 0 0-4.768-.063q-1.76 0-5.28.063v.033q.032.032.032.063.032.191-.128.336a.52.52 0 0 1-.352.144q-.352 0-.384-.352a4 4 0 0 0-.048-.496 24 24 0 0 0-.08-.527h-.416q-.256 0-.336-.225c-.08-.225-.042-.293.032-.432q.113-.209.368-.209h.256l-.192-1.728q-.192-1.28-.8-6.224t-1.136-8.048C-2.713 7.839-2.992 6.837-3.547 4.832m.96.256q.672 2.496 1.376 6.432-.096-2.24-.096-6.688a11 11 0 0 0-1.28.256M-.443 8q.032 6.176.672 13.568a93 93 0 0 0 .352 3.488q.032.288.08.607c.048.319.069.447.112.704q.065.384.096.608 2.144.095 6.144.416t5.824.416q11.328.639 15.456 1.119.352-5.12 1.04-14.56a3986 3986 0 0 0 .944-13.152Q15.301 1.344-.443 4.64a90 90 0 0 0 0 3.36m2.944 5.216q0 2.176 1.36 3.552 1.36 1.377 3.472 1.377 2.208 0 3.488-1.377h.064q-.416 2.24-2.08 3.553-1.312 1.055-3.232 1.216-1.28.127-1.664.063V24q1.12 0 1.824-.064 3.424-.255 5.472-2.176 2.784-2.623 2.784-7.456 0-3.008-1.504-4.912T8.261 7.488q-2.496 0-4.128 1.696t-1.632 4.032m3.008-.192q0-1.44.72-2.352T8.101 9.76h.032q1.375 0 2.08 1.136.704 1.136.672 2.896 0 .512-.16.832-.832 1.344-2.592 1.344-1.217 0-1.92-.832-.704-.832-.704-2.112m2.848 15.264 3.072.319 11.936 1.281q4.48.959 6.688 1.535l.096-.576a337 337 0 0 0-5.279-.8A257 257 0 0 0 8.357 28.288m6.144-15.072q0 2.176 1.376 3.552 1.376 1.377 3.456 1.377 2.208 0 3.521-1.377h.031q-.415 2.24-2.048 3.553-1.343 1.055-3.264 1.216-1.28.128-1.664.063V24q1.12 0 1.823-.064 3.424-.255 5.473-2.176 2.783-2.56 2.784-7.456 0-3.008-1.504-4.912T20.293 7.488q-2.496 0-4.144 1.696t-1.648 4.032m3.009-.192q0-1.44.735-2.352.736-.912 1.856-.912h.031q1.377 0 2.08 1.136t.672 2.896q0 .512-.16.832-.832 1.344-2.592 1.344-1.216 0-1.92-.832-.702-.832-.702-2.112m11.424 16.768a199 199 0 0 0 1.375.192 4239 4239 0 0 0 2.064-12.545Q33.797 8.736 34.564 4.096A109 109 0 0 1 33.43 4q-.721-.063-1.328-.112a56 56 0 0 0-1.152-.08 3839 3839 0 0 1-.864 11.728 1530 1530 0 0 0-.991 13.937.4.4 0 0 1-.129.287q-.033 0-.032.032"/></svg>