<svg xmlns="http://www.w3.org/2000/svg" width="32" height="32" viewBox="1.5 0 32 32" xml:space="preserve"><path d="M-1.156 20.704q-.032-2.017.784-3.728.816-1.713 2.144-2.849a17 17 0 0 1 2.944-2.016q1.616-.88 3.232-1.376c1.616-.496 2.064-.603 2.96-.816s1.622-.352 2.176-.416l.832-.096v3.936q-1.824.128-3.344.624t-2.48 1.168a11 11 0 0 0-1.696 1.456q-.735.784-1.12 1.536a13 13 0 0 0-.608 1.36q-.224.608-.256.992l-.064.384a5 5 0 0 0-.096.96q0 .703.224 1.344a4.54 4.54 0 0 0 1.216 1.855 12.5 12.5 0 0 0 1.888 1.425q1.056.656 2.176 1.056c1.12.4 1.429.496 2.048.688q.928.288 1.504.416l.608.097V32Q10.812 31.68 8.3 30.88C5.788 30.08 5.276 29.744 4.252 29.072Q2.715 28.063 1.596 26.912C.477 25.761.305 25.392-.036 24.656S-.639 23.259-.82 22.672q-.272-.88-.304-1.424zM15.164 32V3.136L19.707 0v29.504zm5.632-18.912h.159a7.9 7.9 0 0 1 2.465.48q1.344.512 2.048.992l.672.512-2.655 1.088L33.5 18.656v-7.84l-3.424 1.952q-1.28-1.376-3.601-2.208t-4.016-.992l-1.664-.16z"/></svg>