<svg version="1.1" xmlns="http://www.w3.org/2000/svg" x="0" y="0" width="32" height="32" viewBox="4.5 0 32 32" xml:space="preserve"><path d="M-4.236 16.192V14.56q0-1.216 2.784-2.08c2.784-.864 4.106-.864 6.752-.864q3.968 0 6.752.864c2.784.864 2.784 1.27 2.784 2.08v1.632q-.032 1.216-2.816 2.064c-2.784.848-4.096.848-6.72.848s-4.864-.282-6.72-.848-2.795-1.253-2.816-2.064M4.948 8.416v-.864q.063-.609 2.048-1.04Q8.98 6.08 11.764 6.08c2.784 0 3.44.144 4.752.432q1.968.432 2.032 1.04h.032v.864h-.032q-.064.64-2.032 1.072t-4.752.432C8.98 9.92 8.318 9.776 6.996 9.488Q5.011 9.056 4.948 8.416M11.7 24.225v-2.049q.128-1.792 3.744-3.023 3.616-1.233 8.671-1.232 5.056 0 8.656 1.232t3.729 3.023v2.049q-.096 1.76-3.713 3.008-3.615 1.248-8.672 1.248-5.056 0-8.671-1.232C11.829 26.017 11.785 25.418 11.7 24.225m7.296-10.913v-1.344q.064-.927 2.416-1.568 2.35-.64 5.615-.64c3.265 0 4.049.213 5.616.64s2.374.95 2.416 1.568v1.344q0 .928-2.353 1.6-2.351.672-5.68.672c-3.329 0-4.111-.224-5.68-.672q-2.35-.672-2.35-1.6"/></svg>