<svg xmlns="http://www.w3.org/2000/svg" width="32" height="32"><path d="M17.113 25.124c-6.47 0-8.644-.293-8.644-.293s.338-5.161 2.7-6.089c2.36-.929 2.938-.797 3.757-1.292q.03-.017.061-.034v-1.389c-.786-.689-1.412-1.728-1.779-2.915-.426-.458-.672-.997-.672-1.573a2.14 2.14 0 0 1 .328-1.12c.14-2.91 1.99-4.835 4.255-4.835s4.116 1.926 4.254 4.835a2.14 2.14 0 0 1 .328 1.12c0 .576-.246 1.115-.672 1.573-.365 1.187-.992 2.225-1.778 2.915v1.39q.03.016.06.033c.82.495 1.399.363 3.76 1.292 2.362.928 2.698 6.089 2.698 6.089s-2.186.293-8.656.293M27.984-.031H1.517A1.523 1.523 0 0 0-.006 1.492v28.94c0 .842.682 1.522 1.523 1.522h26.467L41.691 15.963z"/></svg>