<svg xmlns="http://www.w3.org/2000/svg" width="32" height="32" viewBox="-3.5 0 32 32" xml:space="preserve"><path d="M3.732 11.584q0-2.016.848-4C5.428 5.6 5.956 5.035 7.012 3.904q1.584-1.695 4.16-2.752T16.884.096q5.088 0 8.352 3.136t3.264 7.392q0 5.472-2.768 9.04c-2.768 3.568-4.229 3.568-7.152 3.568a5.7 5.7 0 0 1-2.703-.672q-1.266-.673-1.776-1.633l-1.28 5.057a10 10 0 0 1-.416 1.231q-.255.624-.56 1.2c-.305.576-.405.746-.608 1.088s-.405.662-.608.96a24 24 0 0 1-.528.752 9 9 0 0 1-.416.528L9.492 32a.24.24 0 0 1-.256.096.23.23 0 0 1-.192-.191q0-.032-.048-.448a33 33 0 0 1-.192-2.08 16 16 0 0 1-.032-1.424 21 21 0 0 1 .096-1.521 12 12 0 0 1 .24-1.535A7002 7002 0 0 1 11.476 14.88a5.3 5.3 0 0 1-.416-1.232q-.16-.72-.16-1.168L10.869 12q0-2.047 1.04-3.408t2.512-1.36q1.185 0 1.84.784.656.784.656 1.968 0 .736-.271 1.808c-.271 1.072-.422 1.536-.721 2.464q-.447 1.392-.64 2.256-.32 1.441.56 2.496.881 1.056 2.353 1.057 2.528 0 4.177-2.864 1.647-2.865 1.647-6.928 0-3.104-2.017-5.072T16.374 3.233q-4.032 0-6.544 2.592t-2.512 6.208q0 2.143 1.216 3.616.416.48.256 1.024-.064.16-.192.736-.127.576-.192.736-.063.352-.32.463-.256.113-.576-.016-1.89-.768-2.834-2.64C3.732 14.08 3.732 13.248 3.732 11.584"/></svg>