<svg version="1.1" xmlns="http://www.w3.org/2000/svg" x="0" y="0" width="32" height="32" viewBox="1 0 32 32" xml:space="preserve"><path d="M-.6 19.616q.32-4.449 5.376-5.536.384-2.848 1.36-6.144T8.424 3.264Q9.96 1.696 12.264.848A13.5 13.5 0 0 1 16.937 0q2.752 0 5.248 1.248c2.496 1.248 2.911 2.005 3.743 3.52q.61 1.152 1.328 4.176.72 3.024.977 4.944a2.9 2.9 0 0 0 1.088.192q.96 0 .96-.928 0-.352-.192-1.072-.191-.72-.16-1.136v-.128h.033q.864 0 1.951 1.632Q33 14.111 33 15.04q0 .64-.304 1.136a3.8 3.8 0 0 1-.608.784q-.304.288-1.056.56t-1.04.336l-1.152.256a2 2 0 0 0-.256.064v.832q0 5.537-2.463 8.096l.799.801q.129.064.801.367.67.304 1.136.593c.466.289.507.384.592.575q-2.08 1.633-4.224 1.633-1.088 0-2.4-.545-2.815 1.185-5.76 1.185-3.776 0-7.488-1.952-1.152.256-1.76.608a12 12 0 0 0-.848.575 12 12 0 0 1-1.168.752q-.544.303-.897.304a7 7 0 0 1-.096-1.184q0-2.528 1.696-4.032Q4.584 23.615 4.52 18.56l-.224-.033H4.2q-.96-.032-2.432.545-1.536.576-2.048.607a1 1 0 0 1-.32-.063m7.424 2.976q0 .416.224.864.864 3.073 2.848 4.416 1.376.927 3.392 1.487 2.016.561 3.744.561 2.112 0 4.656-.896 2.545-.895 3.823-2.304 2.177-2.336 2.177-8.224 0-7.232-2.944-12.128a13 13 0 0 0-.56-.88q-.177-.24-.608-.496-.432-.256-1.039-.256-1.6 0-3.425 1.952Q16.681 5.185 14.632 5.184q-1.888 0-3.344 1.376C9.832 7.936 9.561 8.592 9.017 9.904q-.816 1.968-1.344 4.512c-.528 2.544-.582 3.2-.688 4.512a45 45 0 0 0-.161 3.664M12.616 9.568a1.64 1.64 0 0 1 .496-1.2 1.6 1.6 0 0 1 1.168-.496q.704 0 1.2.496t.496 1.2c0 .704-.166.864-.496 1.184a1.66 1.66 0 0 1-1.2.48 1.63 1.63 0 0 1-1.168-.48 1.59 1.59 0 0 1-.496-1.184m1.792-.576q0 .384.384.384.16 0 .272-.112c.112-.112.112-.166.112-.272a.42.42 0 0 0-.112-.288.35.35 0 0 0-.272-.128q-.383 0-.384.416m3.008 1.92.064-.064-.032.096zm.16-.16L19.24 9.088l1.633 1.664a5.3 5.3 0 0 1-1.601.224 6 6 0 0 1-1.696-.224m.065.704a9 9 0 0 0 1.6.16q.704 0 1.568-.16l-1.568 1.568zM21 10.944v-.096l.032.064zm.864-1.376a1.63 1.63 0 0 1 .496-1.2 1.63 1.63 0 0 1 1.2-.496 1.63 1.63 0 0 1 1.199.496q.496.496.496 1.2c0 .704-.165.864-.496 1.184a1.66 1.66 0 0 1-1.199.48q-.704 0-1.2-.48a1.58 1.58 0 0 1-.496-1.184m1.792-.576q0 .16.128.272c.128.112.171.112.257.112a.42.42 0 0 0 .287-.112.35.35 0 0 0 .129-.272q0-.416-.416-.416a.35.35 0 0 0-.272.128.42.42 0 0 0-.113.288"/></svg>