<svg version="1.1" xmlns="http://www.w3.org/2000/svg" x="0" y="0" width="32" height="32" viewBox="2 0 32 32" xml:space="preserve"><path d="M-2.271 11.072q-.24-6.88.368-8.64.127-.288.303-.496c.176-.208.267-.272.448-.4q.273-.192.432-.304.16-.112.56-.32C.24.704.283.683.369.64q4.352 0 12.352-.064T23.249.512h3.008q0 0 1.761.016 1.76.017 1.808.08.048.065 1.44.192 1.391.128 1.04.32a2.7 2.7 0 0 1 .863.768 4 4 0 0 1 .528.944q.176.465.24 1.28Q34 4.928 34 5.456c0 .528-.005.885-.016 1.6a112 112 0 0 0-.016 1.584q0 6.624-.736 10.463-.736 3.84-3.072 6.816-2.24 2.816-5.264 4.464c-3.024 1.648-4.074 1.766-6.176 2q-3.153.353-6.4-.352Q9.073 31.327 6.352 29.678 3.632 28.03 1.52 25.422a16.8 16.8 0 0 1-3.072-5.808q-.48-1.661-.719-8.542m7.407-.064q-.832.896.48 2.864 1.312 1.969 3.328 3.952.064.064 1.264 1.279 1.2 1.216 1.712 1.664c.512.448.843.678 1.504 1.137q.993.688 1.824.912a2.8 2.8 0 0 0 .72.096q.369 0 .624-.032a2.1 2.1 0 0 0 .625-.208q.368-.175.512-.24c.144-.065.262-.165.496-.367q.351-.304.384-.336a28 28 0 0 1 .384-.353l.096-.096q.288-.288 1.937-1.792t2.752-2.576c1.103-1.072 1.456-1.558 2.16-2.528s1.077-1.776 1.12-2.416q-.48-1.28-1.217-1.792-.735-.512-1.615-.272t-1.792.832-1.888 1.536a72 72 0 0 0-1.793 1.792 223 223 0 0 1-1.584 1.632q-.767.785-1.184 1.041-.864-.513-2.32-1.904t-2.624-2.624C9.873 10.977 9.478 10.705 8.689 10.161Q7.505 9.345 6.929 9.697q-.8.479-1.793 1.311"/></svg>