<svg xmlns="http://www.w3.org/2000/svg" width="32" height="32"><path d="M0 16.704Q0 12.192 2.144 8.368T7.968 2.32 16 .096t8.032 2.224 5.824 6.048T32 16.704q0 .128-.016.32t-.016.32q-.256-6.656-4.88-11.296T16 1.408 4.912 6.048.032 17.344q0-.128-.016-.32T0 16.704m5.856-.032q0-4.352 2.976-7.44T16 6.144t7.168 3.088 2.976 7.44q0 .096-.016.32t-.016.32q-.256-4.128-3.168-7.008T16 7.424t-6.944 2.88-3.168 7.008q0-.096-.016-.32t-.016-.32m5.312 6.24q0-1.056.144-1.888t.336-1.376.592-.928.736-.576.912-.304.992-.128T16 17.696t1.12.016.992.128.912.304.736.576.592.928.336 1.376.144 1.888q0 3.776-1.424 6.48T16 32.096t-3.408-2.704-1.424-6.48m1.504-8.96q0-1.408.976-2.432T16 10.496t2.352 1.024.976 2.432-.976 2.432T16 17.408t-2.352-1.024-.976-2.432"/></svg>