<svg xmlns="http://www.w3.org/2000/svg" width="32" height="32" viewBox="-5.5 0 32 32" xml:space="preserve"><path d="M5.252.48h3.2l.256 3.872h.32l.16-.096Q11.715 0 17.061 0q4.16 0 6.799 3.152t2.64 8.112q0 2.976-.864 5.328-.863 2.352-2.319 3.76-1.457 1.408-3.232 2.145c-1.775.737-2.427.736-3.729.736q-2.208 0-4.016-.912T9.572 19.776l-.064-.096h-.352l-.096.224V32H5.444V7.648q0-2.816-.192-7.168M9.06 13.696q0 .992.192 1.76.608 2.24 2.368 3.616t4.032 1.376q3.232 0 5.184-2.448c1.952-2.448 1.952-3.813 1.952-6.544q0-3.808-1.952-6.208c-1.952-2.4-2.977-2.4-5.023-2.4a6.3 6.3 0 0 0-4.097 1.456Q9.925 5.759 9.348 8.064 9.06 9.12 9.06 9.76z"/></svg>