<svg version="1.1" xmlns="http://www.w3.org/2000/svg" x="0" y="0" width="32" height="32" viewBox="-2 0 32 32" xml:space="preserve"><path d="M1.552 14.528q0-3.904 1.904-7.232Q5.361 3.968 8.624 2.032T15.76.096q5.888 0 10.063 4.224Q30 8.544 30 14.528q0 3.808-1.824 7.056c-1.824 3.248-2.858 3.898-4.929 5.2q.032.064.113.208a5 5 0 0 0 .367.512q.288.368.672.704c.384.336.608.453 1.057.688a6.5 6.5 0 0 0 1.439.543v2.433a11.3 11.3 0 0 1-2.144.224q-1.6 0-2.72-.576-1.793-.927-2.912-3.008-1.537.416-3.36.416-3.84 0-7.12-1.936A14.2 14.2 0 0 1 3.455 21.744Q1.553 18.432 1.552 14.528m7.072 1.888q0 3.712 2.128 6.352 2.127 2.64 5.136 2.641a5.7 5.7 0 0 0 1.664-.256q-.065-.096-.176-.272c-.111-.176-.229-.314-.465-.592a6 6 0 0 0-.752-.752 4.8 4.8 0 0 0-.991-.624A3 3 0 0 0 14 22.593v-2.816a7 7 0 0 1 .64-.031q3.808 0 6.496 2.88 2.016-2.593 2.016-6.208v-3.712q0-3.712-2.127-6.352-2.129-2.64-5.137-2.64t-5.136 2.64-2.128 6.352z"/></svg>