<svg xmlns="http://www.w3.org/2000/svg" width="32" height="32" viewBox="3.5 0 32 32" xml:space="preserve"><path d="M-3.061 15.904q0-1.983 1.584-3.392t3.6-1.408q1.984 0 3.36 1.152h.16Q9.931 9.632 16.363 9.632l.16-.128L18.763.96l7.744 1.152q0 .032.063.032.032 0 0-.032.064-.032.368-.496.304-.465.464-.592Q28.492 0 30.027 0q1.568 0 2.641 1.04c1.073 1.04 1.071 1.562 1.071 2.608s-.356 1.941-1.071 2.688-1.596 1.12-2.641 1.12q-1.825 0-2.783-1.232-.961-1.232-.961-3.088-.064.032-3.119-.416Q20.107 2.273 19.66 2.176h-.097q-.064.064-.528 1.712a319 319 0 0 0-.959 3.488 89 89 0 0 1-.561 2.032v.096l.16.128q2.303 0 4.72.656c2.417.656 3.003 1.051 4.176 1.84l.097.064q.032-.032.063-.032c.031 0 .042-.011.063-.032a44 44 0 0 1 1.137-.8q.337-.224.943-.416a4.6 4.6 0 0 1 1.377-.192q2.176 0 3.711 1.536Q35.5 13.792 35.5 16q0 1.504-.849 2.752c-.849 1.248-1.307 1.473-2.224 1.92q0 6.24-8.32 9.696-1.313.576-1.792.735-1.024.32-2.912.608C17.515 31.999 17.152 32 16.427 32A24.4 24.4 0 0 1 9.035 30.88q-.064-.064-2.304-1.216-3.04-1.632-4.88-3.712C.011 23.872.011 22.901.011 20.96h-.16q-1.056-.543-1.888-1.601l-.288-.383q-.48-.864-.608-1.457c-.128-.593-.128-.932-.128-1.615m1.088.384q0 2.111 1.824 3.584.16-1.888 1.536-3.712a16.6 16.6 0 0 1 3.232-3.232 4.47 4.47 0 0 0-2.624-.832q-1.568 0-2.768 1.296t-1.2 2.896m3.265 4.672q0 1.727.992 3.328a9.7 9.7 0 0 0 2.544 2.735q1.552 1.137 3.28 1.904c1.728.767 2.272.875 3.36 1.088q2.4.448 4.672.448 3.936 0 7.456-1.264t5.92-3.921h-.096q.96-1.216 1.375-2.191c.415-.975.416-1.424.416-2.32a6.8 6.8 0 0 0-.848-3.295 8.9 8.9 0 0 0-2.224-2.688q-1.376-1.12-2.944-1.936c-1.568-.816-2.111-.955-3.199-1.232q-2.72-.736-5.792-.736-2.369 0-4.848.576c-2.479.576-3.253.96-4.8 1.728q-2.32 1.152-3.792 3.184T1.292 20.96m5.952-2.336q0-1.184.72-1.904Q8.683 16 9.868 16q1.184 0 1.984.72t.8 1.904q0 1.153-.816 1.92-.816.77-1.968.769-1.152 0-1.888-.769-.736-.767-.736-1.92m1.152 5.248h1.408q.8 1.44 2.544 2.192a8.9 8.9 0 0 0 3.568.752 8.5 8.5 0 0 0 3.52-.752 6.54 6.54 0 0 0 2.688-2.192h1.312q-.8 1.985-2.977 3.071a10 10 0 0 1-4.543 1.089q-2.304 0-4.528-1.104Q9.163 25.824 8.396 23.872m10.751-5.248q0-1.216.735-1.92Q20.62 16 21.836 16q1.088 0 1.855.768.768.769.768 1.856c0 1.087-.256 1.354-.768 1.888s-1.131.801-1.855.801q-1.185 0-1.937-.752-.752-.753-.752-1.937M27.308 3.648q0 1.12.8 1.92a2.62 2.62 0 0 0 1.92.8q1.151 0 1.889-.784.735-.784.735-1.936a2.53 2.53 0 0 0-.769-1.856 2.53 2.53 0 0 0-1.855-.768q-1.087 0-1.904.784-.816.784-.816 1.84m.448 8.992a11.3 11.3 0 0 1 3.039 2.96q1.28 1.808 1.793 3.824 1.888-1.376 1.888-3.072 0-1.856-1.136-3.2t-2.961-1.344a4.46 4.46 0 0 0-2.623.832"/></svg>