<svg xmlns="http://www.w3.org/2000/svg" width="128" height="128"><path d="M97.333 32c-3.536 0-6.907 0.683-10.021 1.88A21.307 21.307 0 0 0 69.333 24a21.253 21.253 0 0 0-14.525 5.739A25.227 25.227 0 0 0 36 21.333 25.333 25.333 0 0 0 10.667 46.667a25.333 25.333 0 0 0 0.773 6.114A22.613 22.613 0 0 0 2.667 70.667 22.667 22.667 0 0 0 25.333 93.333c1.101 0 2.176-0.104 3.238-0.256a22.648 22.648 0 0 0 40.442 2.142A21.333 21.333 0 0 0 74.667 96a21.28 21.28 0 0 0 17.061-8.563A28.267 28.267 0 0 0 97.333 88C112.797 88 125.333 75.464 125.333 60S112.797 32 97.333 32"/></svg>