<svg xmlns="http://www.w3.org/2000/svg" width="32" height="32" viewBox="-2 0 32 32" xml:space="preserve"><path d="M2.448 22.784q0-1.407 1.008-2.433a3.3 3.3 0 0 1 2.448-1.023q1.408 0 2.432 1.023 1.024 1.025 1.024 2.433 0 1.471-1.088 2.496 2.08 2.367 5.216 2.368 2.21 0 3.712-1.312 1.504-1.343 1.504-3.393 0-1.247-.8-2.463a6.8 6.8 0 0 0-1.92-2.049q-1.088-.735-3.68-1.824-2.4-.96-3.904-1.888A10.2 10.2 0 0 1 6.064 12.671q-.96-1.152-1.472-2.368A7.4 7.4 0 0 1 4.144 7.776q0-3.232 2.592-5.504Q9.36 0 13.04 0 15.506 0 18 1.056a10.15 10.15 0 0 1 3.616 2.56Q22.8 4.64 22.8 6.176q0 1.44-1.023 2.448c-1.023 1.008-1.494 1.008-2.432 1.008q-1.44 0-2.448-1.008T15.889 6.176q0-.672.319-1.408-1.024-.512-2.816-.512-2.208 0-3.584.992t-1.376 2.56q0 1.376 1.216 2.432 1.28 1.056 4.096 2.272 2.944 1.28 4.513 2.336 1.632 1.088 2.623 2.368 1.057 1.312 1.536 2.72a.3.3 0 0 0 .032.097.3.3 0 0 1 .032.096q-2.4 1.984-2.4 5.056 0 1.696.896 3.328a24 24 0 0 1-.768.864Q17.425 32 13.616 32T6.96 29.952Q4.112 27.904 2.512 23.744l.096-.032a2.9 2.9 0 0 1-.16-.928m19.616 2.4q0 1.664 1.151 2.832 1.153 1.168 2.816 1.168c1.663 0 2.048-.389 2.816-1.168Q30 26.848 30 25.184q0-1.632-1.151-2.8-1.153-1.167-2.816-1.168c-1.663-.001-2.048.39-2.816 1.168q-1.153 1.167-1.153 2.8"/></svg>