<svg xmlns="http://www.w3.org/2000/svg" width="32" height="32"><path d="M0 8.736Q0 5.12 2.56 2.56T8.736 0q2.496 0 4.64 1.344 1.152-.224 2.56-.224 6.24 0 10.656 4.416t4.416 10.624q0 1.568-.352 3.232.896 1.888.896 3.872 0 3.616-2.56 6.176T22.816 32q-2.176 0-4.128-1.024-1.44.256-2.752.256-6.208 0-10.624-4.416T.896 16.16q0-1.504.288-3.008Q0 11.072 0 8.736m7.072 11.712q0 1.312.96 2.72 2.272 3.328 7.872 3.328 1.6 0 3.088-.352t2.8-1.088 2.112-2.032.8-3.024q0-1.856-.944-3.136t-2.352-1.856-3.056-1.04-3.056-.736T12.944 12.4 12 10.976Q12 9.92 13.168 9.408t2.384-.512q1.28 0 2.112.4t1.216.96.672 1.12.784.96 1.264.4q.864 0 1.52-.608t.656-1.472-.48-1.728q-.96-1.76-3.04-2.56t-4.416-.8q-1.472 0-2.848.288t-2.656.928T8.272 8.592t-.784 2.768q0 2.112 1.28 3.408t3.104 1.824 3.664.912 3.12 1.072 1.28 1.872q0 .928-.736 1.568t-1.616.864-1.808.224q-1.216 0-2.064-.336t-1.232-.864-.72-1.12-.576-1.12-.72-.864T9.28 18.464q-.896 0-1.552.544t-.656 1.44"/></svg>