<svg width="256" height="256" xmlns="http://www.w3.org/2000/svg" preserveAspectRatio="xMidYMid"><path d="M165.964 15.838C162.074 3.863 149.212-2.69 137.24 1.202c-11.976 3.89-18.53 16.752-14.637 28.725l58.947 181.365c4.048 11.187 16.132 17.473 27.732 14.135 12.1-3.483 19.475-16.334 15.614-28.217zM74.626 45.516C70.734 33.542 57.873 26.99 45.9 30.88 33.924 34.77 27.37 47.63 31.263 59.606L90.21 240.972c4.048 11.186 16.133 17.473 27.733 14.132 12.1-3.48 19.474-16.332 15.613-28.217zM240.162 166.045c11.975-3.89 18.526-16.75 14.636-28.726-3.89-11.974-16.752-18.528-28.725-14.637l-181.365 58.95c-11.187 4.045-17.473 16.13-14.135 27.73 3.483 12.098 16.334 19.474 28.217 15.613zM82.508 217.27l43.347-14.084-14.086-43.352-43.35 14.09 14.088 43.347M173.847 187.59c16.388-5.322 31.62-10.272 43.348-14.083l-14.088-43.36-43.35 14.09 14.09 43.354M210.484 74.706c11.974-3.89 18.527-16.75 14.637-28.727-3.89-11.974-16.75-18.527-28.726-14.637L15.028 90.293C3.842 94.337-2.445 106.422.896 118.022c3.48 12.098 16.332 19.474 28.217 15.613l181.37-58.93M52.822 125.933c11.805-3.836 27.025-8.782 43.354-14.086C90.853 95.457 85.903 80.225 82.092 68.495l-43.36 14.092zM144.16 96.256l43.356-14.088C182.19 65.775 177.24 50.538 173.426 38.808L130.07 52.9z"/></svg>