<svg xmlns="http://www.w3.org/2000/svg" width="32" height="32"><path d="M0 18.144v-4.288t.08-1.888T.304 10 .752 8.304t.752-1.776T2.64 5.04 4.256 3.52Q8.928 0 15.648 0h.512v24.864h3.968v-6.656q.224.352 1.248 2.032t1.632 2.544q.928 1.28 2.032 1.696t2.928.416h1.152V21.12q-1.44 0-2.016-.224T25.76 19.584q-.448-.576-1.184-1.808t-.832-1.392l5.472-7.616H24.48l-4.352 6.048V.32q4.32.704 7.616 3.2.928.704 1.616 1.52t1.136 1.488.752 1.776T31.696 10t.224 1.968.08 1.888v4.288t-.08 1.888T31.696 22t-.448 1.696-.752 1.776T29.36 26.96t-1.616 1.52Q23.072 32 16 32T4.256 28.48Q3.328 27.776 2.64 26.96T1.504 25.472.752 23.696.304 22 .08 20.032 0 18.144m2.592 4.768q2.112 2.144 6.144 2.144 2.56 0 4.4-1.312t1.84-3.776q0-1.632-.576-2.704t-1.44-1.456-1.872-.624-1.872-.288-1.44-.368-.576-.96q0-1.504 2.24-1.472 1.824 0 2.784.928l2.496-2.496Q12.8 8.608 9.28 8.608q-2.496 0-4.208 1.328t-1.712 3.76q0 1.632.656 2.672t1.648 1.424 2 .544 1.904.288 1.184.448q.32.352.32.96 0 1.472-2.304 1.472-2.464 0-3.616-1.152z"/></svg>