<svg xmlns="http://www.w3.org/2000/svg" width="32" height="32" viewBox="2.5 0 32 32" xml:space="preserve"><path d="M-2.348 21.729q0-.513.112-1.408c.112-.895.176-.928.304-.992q.192.096.336 1.04t.144 1.36q0 .448-.144 1.359c-.144.911-.208.944-.336 1.008q-.416-.224-.416-2.367m2.048 0q0-.8.16-2.369a159 159 0 0 0 .192-1.951q0-.192.192-.192.127 0 .192.192.384 4.127.384 4.32 0 .768-.176 2.271a74 74 0 0 0-.208 1.889q-.064.223-.192.223-.192 0-.192-.223A175 175 0 0 0-.14 24.016Q-.3 22.496-.3 21.729m2.592 0q0-.77.16-2.353t.16-1.744q0-.288.224-.288.256 0 .256.288.352 3.616.352 4.097 0 .479-.352 4.352 0 .255-.256.256-.224 0-.224-.256 0-.224-.16-1.872-.16-1.65-.16-2.48m2.944 0q0-1.217.048-2.576.048-1.36.128-3.041a194 194 0 0 0 .112-2.608q0-.32.288-.32.32 0 .32.32.032.512.176 3.568t.144 4.656q0 .832-.16 2.463-.16 1.633-.16 1.856 0 .32-.32.32-.288 0-.288-.32a648 648 0 0 1-.288-4.318m3.008 0q0-1.76.096-5.104c.096-3.344.106-3.6.128-4.112q.064-.384.384-.384c.32 0 .341.128.384.384q.032 1.024.144 4.255.112 3.233.112 4.961 0 .8-.112 2.304a478 478 0 0 0-.144 1.952q-.063.384-.384.384c-.321 0-.341-.128-.384-.384q0-.351-.112-1.889a35 35 0 0 1-.112-2.367m3.04 0q0-1.281.032-2.721c.032-1.44.048-2.026.08-3.2a517 517 0 0 1 .08-2.72q.064-.48.448-.48c.384 0 .405.16.448.48q.032.96.08 2.72t.08 3.2.032 2.721q0 .063-.192 4.191v-.031q-.064.479-.448.479c-.384 0-.405-.149-.448-.448a1167 1167 0 0 1-.192-4.191m3.04.031q0-.096.192-11.232.064-.576.512-.576c.448 0 .469.192.512.576q.192 11.135.192 11.232 0 .032-.192 4.064-.064.543-.512.544c-.448.001-.469-.182-.512-.544a2093 2093 0 0 1-.192-4.064m2.561-6.8q0-2.64.031-4.976-.032-.32.4-.576t1.04-.368c.608-.112.773-.133 1.104-.176a6 6 0 0 1 .783-.064q3.104 0 5.408 2.32t2.561 5.712q.896-.416 1.76-.416 1.855 0 3.184 1.456c1.329 1.456 1.334 2.149 1.344 3.536q.017 2.08-1.328 3.535Q31.827 26.4 29.973 26.4H17.396q-.192 0-.336-.192c-.144-.192-.145-.267-.145-.416q0-1.76-.016-4.976a1411 1411 0 0 1-.014-5.856"/></svg>