<svg xmlns="http://www.w3.org/2000/svg" width="32" height="32"><path d="M0 16.032Q0 11.68 2.144 8T7.968 2.176 16 .032t8.032 2.144T29.856 8 32 16.032q0 3.232-1.216 6.144t-3.424 5.12Q25.44 24.96 22.704 23.648t-5.84-1.312q-3.424 0-6.368 1.584t-4.832 4.304q-2.656-2.272-4.16-5.44T0 16.032m5.248-4.608q0 .544.384.944t.96.4q.192 0 .288-.032 4.608-1.856 9.536-1.856t9.536 1.856q.032 0 .128.016t.16.016q.544 0 .944-.4t.4-.944q0-.8-.736-1.184Q21.76 8.224 16.416 8.224q-5.44 0-10.528 2.048-.64.416-.64 1.152m1.472 4.768.192.512q.256.416.736.416.096 0 .288-.064 4.064-1.76 8.48-1.76 4.448 0 8.544 1.792.128.064.224.064.48 0 .736-.416l.16-.544q0-.416-.32-.672-4.416-1.984-9.344-1.984-4.896 0-9.376 1.984-.32.32-.32.672M8.256 20.8q.32.8.992.512 3.456-1.632 7.168-1.632 3.584 0 7.008 1.536.768.416 1.12-.384.16-.416 0-.736t-.448-.48Q20.704 17.92 16.416 17.92q-4.096 0-7.808 1.76Q8 20 8.256 20.8m1.952 10.144q1.184-1.536 2.928-2.432t3.728-.896q3.648 0 6.176 2.752Q19.712 32.032 16 32.032q-3.008 0-5.792-1.088"/></svg>