<svg xmlns="http://www.w3.org/2000/svg" width="32" height="32" viewBox="1.5 0 32 32" xml:space="preserve"><path d="M-1 13.872Q-1 9.984 1.976 7.168q1.856-1.76 4.272-2.4c2.416-.64 3.243-.411 4.896.048s3.12 1.36 4.4 2.704q1.407 1.472 2 3.424c.593 1.952.555 2.534.479 3.696a10.1 10.1 0 0 1-.752 3.28q-.608 1.312-.096 2.977.513 1.663 1.28 2.832a25 25 0 0 0 1.616 2.191q.847 1.024.848 1.057l-.352-.289q-.32-.32-.688-.655a13 13 0 0 0-.991-.816q-.624-.48-1.217-.864c-.593-.384-.848-.522-1.36-.8s-.992-.475-1.44-.592a8.5 8.5 0 0 0-1.424-.24q-.752-.064-1.36.224-1.503.608-3.312.641-1.807.032-3.744-.704a8.4 8.4 0 0 1-3.28-2.208Q-1 17.759-1 13.872m4.224-.624q-.288 2.208 1.072 3.984t3.568 2.063q2.208.288 3.968-1.071 1.76-1.361 2.048-3.568.288-2.208-1.056-3.968C11.48 8.928 10.744 8.832 9.272 8.64s-2.8.16-3.984 1.056-1.872 2.08-2.064 3.552M18.52 3.84q.672-1.888 2.369-2.8 1.696-.912 3.615-.272 1.856.576 2.768 2.304t.272 3.712q-.768 2.304-3.647 3.328-.993.352-1.776 1.072c-.783.72-.891.885-1.104 1.216a17 17 0 0 0-.736 1.296q.706-3.008-.768-5.088Q17.752 6.048 18.52 3.84m1.216 15.84q.064-2.944 2.016-4.96t4.864-2.016q2.848 0 4.864 1.968c2.016 1.968 2.016 2.981 2.016 5.008q0 3.521-3.52 6.24a7.5 7.5 0 0 0-1.984 2.271q-.768 1.344-.977 2.177c-.209.833-.271 1.269-.399 2.144a19 19 0 0 0-.32-2.144q-.192-.864-.96-2.224a7.65 7.65 0 0 0-2.08-2.353q-3.551-2.655-3.52-6.111M20.952 4.576a2.2 2.2 0 0 0 .016 1.744A2.18 2.18 0 0 0 22.2 7.552a2.2 2.2 0 0 0 1.728 0 2.14 2.14 0 0 0 1.217-1.216 2.3 2.3 0 0 0 0-1.76A2.14 2.14 0 0 0 23.928 3.36a2.25 2.25 0 0 0-1.744 0 2.13 2.13 0 0 0-1.232 1.216M23.08 21.04q.593 1.456 2.096 2.096 1.472.608 2.944-.016c1.472-.624 1.675-1.114 2.08-2.097q.608-1.47 0-2.928C29.592 16.637 29.102 16.427 28.12 16a3.72 3.72 0 0 0-2.944 0 3.7 3.7 0 0 0-2.08 2.08q-.608 1.503-.016 2.96"/></svg>