<svg version="1.1" xmlns="http://www.w3.org/2000/svg" x="0" y="0" width="32" height="32" viewBox="5 0 32 32" xml:space="preserve"><path d="M-4.984 12.224q0-1.76 1.232-3.008C-2.52 7.968-1.933 7.968-.76 7.968q1.503 0 2.672.944c1.169.944 1.274 1.424 1.488 2.384l16.064 6.464a4.2 4.2 0 0 1 2.177-.607q.063 0 .207.016a2 2 0 0 0 .24.016l3.52-5.087q.033-2.336 1.697-3.984 1.663-1.648 4-1.648 2.367 0 4.031 1.664C37 9.794 37 10.582 37 12.16s-.555 2.922-1.664 4.032q-1.664 1.664-4.031 1.664l-5.44 3.969a4.12 4.12 0 0 1-1.376 2.736q-1.216 1.103-2.848 1.104-1.536 0-2.688-.96c-1.152-.96-1.259-1.44-1.472-2.399L1.416 15.872A4.2 4.2 0 0 1-.76 16.48q-1.76 0-2.992-1.248c-1.232-1.248-1.232-1.835-1.232-3.008m1.12 0a3 3 0 0 0 .912 2.192 3 3 0 0 0 2.192.912q.288 0 .672-.064L-1.4 14.752v-.032a2.47 2.47 0 0 1-1.28-1.344 2.3 2.3 0 0 1-.192-.896q0-.48.192-.96.384-.96 1.28-1.344a2 2 0 0 1 .992-.192q.416 0 .864.16v-.032l1.568.64Q1.096 9.088-.76 9.088A2.99 2.99 0 0 0-2.952 10q-.912.912-.912 2.224M18.855 22.88q.928 1.664 2.785 1.664 1.28 0 2.207-.912a3 3 0 0 0 .928-2.224q0-1.28-.911-2.192c-.911-.912-1.35-.911-2.224-.911q-.449 0-.672.063l1.279.512a2.43 2.43 0 0 1 1.376 1.345 2.25 2.25 0 0 1 .224.959 2.5 2.5 0 0 1-.191.928q-.384.993-1.344 1.377a2.6 2.6 0 0 1-.961.191 2.5 2.5 0 0 1-.928-.191 55 55 0 0 1-.783-.305 39 39 0 0 0-.785-.304m8.641-10.72q0 1.568 1.12 2.688c1.12 1.12 1.643 1.12 2.688 1.12q1.6 0 2.719-1.12 1.12-1.12 1.121-2.688 0-1.567-1.121-2.688-1.119-1.12-2.719-1.12-1.568 0-2.688 1.12c-1.12 1.12-1.12 1.643-1.12 2.688m.8-.032q0 1.28.88 2.176t2.16.896q1.248 0 2.145-.896a2.96 2.96 0 0 0 .896-2.176q0-1.248-.896-2.144t-2.145-.896q-1.28 0-2.16.896a2.96 2.96 0 0 0-.88 2.144"/></svg>