<svg version="1.1" xmlns="http://www.w3.org/2000/svg" x="0" y="0" width="32" height="32" viewBox="-5.5 0 32 32" xml:space="preserve"><path d="M5.156 11.296Q4.803 6.465 9.188 3.232q2.016-1.504 4.64-2.24 2.496-.736 5.6-.352t5.792 1.888a24 24 0 0 0 0 2.432q.192 3.809-.319 4.896-.288-.031-1.664-.448a17 17 0 0 0-2.112-.512A16 16 0 0 0 19.173 8.64q-2.24-.192-3.168 1.216.256 1.409 1.216 2.112.96.672 2.624 1.184 1.567.448 2.208.832 3.617 2.241 4.448 7.008v2.72q0 2.592-1.424 4.56t-3.793 2.961q-3.36 1.408-7.823 1.231T5.797 30.561a17 17 0 0 0 0-2.528Q5.701 26.688 5.733 25.44q.063-1.375.384-2.207a17 17 0 0 1 1.536.352q1.695.48 2.368.607 5.28 1.153 5.664-1.279a1.73 1.73 0 0 0-.336-1.296 3.14 3.14 0 0 0-1.104-.944 21 21 0 0 0-1.536-.704q-.928-.384-1.185-.544A46 46 0 0 1 9.636 18.402Q7.812 17.313 7.076 16.226q-1.728-2.467-1.92-4.93"/></svg>