<svg version="1.1" xmlns="http://www.w3.org/2000/svg" x="0" y="0" width="32" height="32" viewBox="5 0 32 32" xml:space="preserve"><path d="M-4.889 22.72v-5.792h7.168v5.729q0 .896.64 1.552c.64.656.949.656 1.568.656s1.146-.214 1.584-.64a2.1 2.1 0 0 0 .656-1.568V9.12q0-3.744 2.768-6.384 2.769-2.64 6.576-2.64t6.576 2.656q2.768 2.656 2.769 6.432v2.944l-4.289 1.28-2.848-1.344v-2.56a2.13 2.13 0 0 0-.641-1.568 2.13 2.13 0 0 0-1.567-.64q-.928 0-1.584.64c-.656.64-.656.949-.656 1.568v13.344q0 3.841-2.752 6.545t-6.592 2.703q-3.873 0-6.624-2.736t-2.752-6.64m23.168.096V16.96l2.848 1.345 4.289-1.281v5.889q0 .928.639 1.584a2.1 2.1 0 0 0 1.568.656q.929 0 1.568-.656c.639-.656.641-.965.641-1.584v-5.984H37v5.792q0 3.872-2.736 6.624t-6.608 2.752c-3.872 0-4.789-.906-6.624-2.72q-2.753-2.722-2.753-6.561"/></svg>