<svg xmlns="http://www.w3.org/2000/svg" width="39.359" height="39.359" xml:space="preserve"><path d="M-5.18 35.087a25 25 0 0 0 2.4.119q7.04 0 12.56-4.318Q6.502 30.847 3.901 28.886 1.3 26.927.34 23.885q.8.162 1.88.161a10 10 0 0 0 2.68-.36Q1.38 23.008-.92 20.227t-2.3-6.421v-.121a9.5 9.5 0 0 0 4.599 1.24 9.9 9.9 0 0 1-3.299-3.58Q-3.14 9.126-3.14 6.527a9.8 9.8 0 0 1 1.4-5.081q3.76 4.68 9.181 7.461 5.418 2.778 11.62 3.1-.28-1.32-.281-2.32 0-4.16 2.96-7.12t7.161-2.96q4.357 0 7.359 3.201 3.479-.722 6.4-2.48-1.121 3.64-4.4 5.6a20.6 20.6 0 0 0 5.76-1.6q-1.92 3-5.001 5.239v1.322q0 4.036-1.18 8.099-1.179 4.06-3.6 7.762a31 31 0 0 1-5.78 6.578q-3.359 2.88-8.06 4.581-4.7 1.7-10.101 1.698Q1.94 39.606-5.18 35.087"/></svg>