<svg xmlns="http://www.w3.org/2000/svg" width="32" height="32" viewBox="-2 0 32 32" xml:space="preserve"><path d="M1.865 20.032q0 4.704 3.232 8.224c3.232 3.52 4.928 3.52 8.32 3.52q5.057 0 8.288-3.52 3.232-3.456 3.232-8.224 0-2.497-.864-4.672a8.1 8.1 0 0 1-2.72 1.088q.703 1.632.703 3.647a9.35 9.35 0 0 1-1.151 4.545q-1.184 2.11-3.168 3.231a8.44 8.44 0 0 1-4.32 1.151q-2.4 0-4.352-1.151A8.3 8.3 0 0 1 5.929 24.64Q4.745 22.56 4.745 20.095q0-3.744 2.56-6.464 2.56-2.656 6.112-2.656a8.3 8.3 0 0 1 3.136.608q.129-1.248.864-2.752-1.825-.672-4-.672-5.12 0-8.512 3.776-3.04 3.426-3.04 8.097m8.96 8.096 1.792.128q2.368-1.503 3.984-3.488 1.615-1.983 2.32-3.968a20.6 20.6 0 0 0 .991-4.032 18 18 0 0 0 .192-2.56q0-.672-.064-1.28a40 40 0 0 0-.4-3.152q-.238-1.392-.496-2.192l-.287-.8Q18.152 4.608 17.464 2.976C16.776 1.344 16.669 1.173 16.456.832l-.352-.544q1.248.64 2.016 1.536.735.928.896 1.696a6.4 6.4 0 0 1 .127 1.248v.224q-.031.703-.191 1.12l-.16.416a70 70 0 0 1 .16 3.584q0 1.664-.16 3.264-.288 3.2-.976 5.344a26 26 0 0 1-1.584 3.888q-.897 1.745-1.84 2.736a20 20 0 0 1-1.744 1.648q-.8.656-1.312.912zm8.8-20.384q.129-1.28.736-2.048l.576-.8q.384-.449 1.248-.848c.864-.399 1.088-.464 1.535-.592l.672-.192q1.154-.256 2.129-1.12T27.913.512l.416-.736q1.312 1.824 1.568 4.128a11.3 11.3 0 0 1 .096 1.824q0 1.087-.192 1.888l-.352 1.44a6.8 6.8 0 0 1-1.072 1.92q-.688.864-1.168 1.184l-.48.352q-1.087.64-2.143.64l-3.488-1.696q1.855-1.024 3.231-2.08c1.376-1.056 1.595-1.317 2.032-1.84a13 13 0 0 0 1.057-1.424q.399-.64.463-.992l.064-.32a8.7 8.7 0 0 1-1.553 2.336Q25.416 8.192 24.409 8.8c-1.007.608-1.317.752-1.937 1.04q-.927.432-1.504.592l-.576.16q-.8-1.407-.799-2.528a2 2 0 0 1 .032-.32"/></svg>