<svg xmlns="http://www.w3.org/2000/svg" width="32" height="32" xml:space="preserve"><path d="M-2.672 8.704A42 42 0 0 1 .848 4.992Q2.608 3.36 3.904 2.512a27 27 0 0 1 2.32-1.376Q7.248.608 7.76.448L8.304.32a4.6 4.6 0 0 1 .768-.064 3.2 3.2 0 0 1 1.12.192 2.84 2.84 0 0 1 1.36 1.104q.528.784.928 1.76c.4.976.496 1.418.688 2.304q.288 1.328.48 2.48a371 371 0 0 0 .432 2.544 29 29 0 0 0 .464 2.256q1.024 4 1.647 5.68.624 1.68 1.328 1.68.77 0 2.129-1.775 1.36-1.776 2.992-4.849.832-1.536.832-2.912a4 4 0 0 0-.063-.736Q23.122 8.32 21.777 7.904a2.3 2.3 0 0 0-.77-.128q-1.12 0-2.656.832.705-4.16 4.289-6.688Q25.361 0 28.208 0q.385 0 .769.032 3.264.255 4.447 2.88.577 1.216.576 2.816 0 .928-.191 1.952-.576 3.264-2.225 6.656t-3.615 6a54 54 0 0 1-4.24 4.96q-2.273 2.351-3.951 3.744-1.68 1.392-2.896 2.192Q15.536 32 14.368 32t-2.224-.672a8 8 0 0 1-1.792-1.536A9 9 0 0 1 9.136 27.968Q8.56 26.751 6.016 18.416 3.472 10.08 2.928 9.44 2.896 9.375 2.8 9.312c-.096-.063-.208-.091-.432-.144a1.9 1.9 0 0 0-.768 0q-.432.08-1.168.448t-1.6 1.04z"/></svg>