<svg xmlns="http://www.w3.org/2000/svg" width="32" height="32" viewBox="3.5 0 32 32" xml:space="preserve"><path d="M-3.54 7.104a2.15 2.15 0 0 1 .8-.384 3 3 0 0 1 .8-.128h.288q.32 0 .768.032.704.032 1.024.032.192 0 1.216-.064.512-.031.928-.016c.416.015.523.016.736.016q.64.064 1.024.256.192.096.416.416a4 4 0 0 1 .368.608q.144.288.368.816a7 7 0 0 0 .32.688 35 35 0 0 0 3.008 5.216q.065.096.224.352a5 5 0 0 0 .272.4q.112.144.288.368c.176.224.229.267.336.352s.219.176.336.272a.8.8 0 0 0 .368.176 1.2 1.2 0 0 0 .384 0q.896-.159.992-3.744a22 22 0 0 0 .032-1.12q0-2.369-.48-3.264a1.6 1.6 0 0 0-.496-.56q-.304-.208-.784-.384c-.48-.176-.565-.229-.736-.336q.448-.896 1.584-1.184c1.136-.288 1.787-.288 3.088-.288h1.696q0 0 .832.016c.832.016.843.042.864.096l.703.176q0 0 .625.288c.625.288.549.341.4.448A3.7 3.7 0 0 1 19.404 8q0 .224.031.448 0 .64-.096 1.664-.128 1.344-.128 1.664a11.6 11.6 0 0 0-.033 2.688q.129 1.408.961 1.952.287-.032.527-.128c.24-.096.325-.182.496-.352a8 8 0 0 0 .352-.368q.096-.112.4-.528c.304-.416.314-.427.336-.448q1.505-1.983 3.008-5.216l.288-.72q0 0 .368-.848c.368-.848.373-.773.384-.624s.177.005.496-.432q.512-.224 1.216-.224h.29q.64 0 1.472.064a27 27 0 0 0 1.504.064q.289 0 .881-.032c.592-.032.741-.037 1.04-.048a10 10 0 0 1 .944.016q.495.032.815.192a.95.95 0 0 1 .448.416.9.9 0 0 1 .096.416q0 .928-1.12 2.784a18 18 0 0 1-1.104 1.68q-.559.752-1.455 1.856c-.896 1.104-.992 1.232-1.184 1.488q-.065.064-.449.576c-.384.512-.441.598-.56.768a4 4 0 0 0-.368.721q-.192.464-.16.848 0 .256.097.48.095.223.304.479c.209.256.246.299.32.384a6 6 0 0 0 .432.416 16 16 0 0 1 .385.353q2.271 2.08 3.584 3.743 1.28 1.664 1.279 2.4 0 1.056-1.632 1.312a11 11 0 0 1-1.696.128q-.67 0-1.376-.097a12 12 0 0 0-1.185-.063 5.7 5.7 0 0 0-1.439.16h-.193q-2.112-.352-4.448-3.009a10 10 0 0 1-.544-.655q-.416-.529-.704-.816c-.288-.287-.438-.373-.736-.544q-.448-.255-.864-.191-.735.128-.976.928c-.241.8-.256 1.168-.288 1.904q-.047 1.103-.304 1.552-.416.768-2.528.768a20 20 0 0 1-2.112-.128Q11.98 27.585 9.948 26.562 7.916 25.537 6.732 24.402 5.549 23.266 4.14 21.441.812 17.186-2.164 11.137a90 90 0 0 1-.352-.72Q-2.772 9.887-2.9 9.6c-.128-.287-.187-.443-.304-.752q-.176-.464-.256-.896a3.7 3.7 0 0 1-.08-.848"/></svg>