<svg version="1.1" xmlns="http://www.w3.org/2000/svg" x="0" y="0" width="32" height="32" viewBox="4 0 32 32" xml:space="preserve"><path d="M-3.52 21.6q0-5.151 5.888-11.104Q6.113 6.784 9.92 5.312q1.792-.736 3.104-.736 1.44 0 2.304.864.832.832.832 2.304 0 .991-.384 2.304-.128.448.096.56c.224.112.32.08.512.016l.32-.128q3.072-1.28 5.44-1.28c2.368 0 2.709.448 3.393 1.344q.479.704.479 1.664 0 .991-.513 2.272-.223.32-.08.544.145.223.257.288a2.4 2.4 0 0 0 .464.16q1.983.608 3.393 1.985 1.407 1.375 1.407 3.424 0 1.887-1.312 3.855c-1.312 1.968-2.064 2.512-3.568 3.6s-3.402 1.984-5.695 2.688q-3.44 1.056-7.312 1.056-4.192 0-7.92-1.231t-6.192-3.681Q-3.52 24.736-3.52 21.6m4 1.536q.32 3.232 4 5.152 2.944 1.568 6.688 1.567.928 0 1.92-.096 4.896-.48 8.16-3.104 2.944-2.4 2.944-5.28a5 5 0 0 0-.032-.576q-.32-3.2-4-5.12-2.976-1.568-6.72-1.568-.928 0-1.888.096-3.231.32-5.856 1.632-2.623 1.312-4.032 3.232Q.448 20.767.448 22.559q0 .289.032.577m5.121 1.984a4.6 4.6 0 0 1-.416-1.888q0-1.12.576-2.24.993-2.048 3.328-3.072a7.1 7.1 0 0 1 2.912-.64 6.8 6.8 0 0 1 1.728.224q2.432.64 3.488 2.624a4.46 4.46 0 0 1 .543 2.112q0 1.024-.479 2.08-.992 2.27-3.488 3.328-1.407.606-2.816.607a6.7 6.7 0 0 1-2.144-.352Q6.496 27.168 5.601 25.12m1.792-.608q.192.8.96 1.12a2 2 0 0 0 .864.192q.384 0 .768-.129a2.44 2.44 0 0 0 1.376-1.055q.32-.514.32-1.024a1.4 1.4 0 0 0-.096-.48q-.192-.767-.96-1.088a2.3 2.3 0 0 0-.832-.159 2.7 2.7 0 0 0-.8.127q-.864.288-1.312 1.024-.352.511-.352 1.056a1.3 1.3 0 0 0 .064.416m4.511-2.528q.096.287.416.416.16.064.304.063a.7.7 0 0 0 .304-.063.93.93 0 0 0 .512-.416.69.69 0 0 0-.32-.992q-.288-.096-.624.016c-.336.112-.39.208-.496.4a.85.85 0 0 0-.096.384zM22.176 2.112a1.428 1.428 0 0 1 .225-1.12 1.5 1.5 0 0 1 .928-.672 10.8 10.8 0 0 1 5.377.256q2.654.864 4.574 2.976a10.24 10.24 0 0 1 2.496 4.896Q36 9.568 36 10.624a9.7 9.7 0 0 1-.512 3.136v.032a1.47 1.47 0 0 1-.736.864 1.7 1.7 0 0 1-1.183.096q-.608-.192-.863-.736a1.62 1.62 0 0 1-.097-1.151v-.032a7.2 7.2 0 0 0 .353-2.24 9.7 9.7 0 0 0-.129-1.536A7.3 7.3 0 0 0 31.042 5.569 7.47 7.47 0 0 0 27.777 3.457a8.1 8.1 0 0 0-2.239-.32 8 8 0 0 0-1.568.16 1.7 1.7 0 0 1-.32.032 1.47 1.47 0 0 1-.832-.256 1.5 1.5 0 0 1-.642-.961m1.281 5.024a1.7 1.7 0 0 1-.033-.32 1.4 1.4 0 0 1 .193-.672 1.3 1.3 0 0 1 .831-.576 5.8 5.8 0 0 1 1.185-.128q2.144 0 3.68 1.696a5.26 5.26 0 0 1 1.216 2.4 6 6 0 0 1 .097 1.056 4.9 4.9 0 0 1-.256 1.536 1.16 1.16 0 0 1-.641.736 1.2 1.2 0 0 1-.576.16 1.3 1.3 0 0 1-.416-.064 1.26 1.26 0 0 1-.768-.64 1.4 1.4 0 0 1-.129-.576 1.3 1.3 0 0 1 .064-.416 3 3 0 0 0 .128-.832q0-.897-.672-1.6-.705-.832-1.728-.832a3.2 3.2 0 0 0-.641.064 1.16 1.16 0 0 1-.959-.192 1.3 1.3 0 0 1-.575-.8"/></svg>