<svg xmlns="http://www.w3.org/2000/svg" width="32" height="32" xml:space="preserve"><path d="M-1.393 4.704v-.672l.064-.064H6.64l.064.064v.64q0 .256-.32.256l-.833.032Q4.496 4.992 4.496 5.6q0 .416.224.896 1.6 3.904 7.104 15.488l.192.031 3.552-7.074a53 53 0 0 0-.704-1.567l-2.432-4.8-.64-1.28Q10.96 5.664 10.704 5.359q-.256-.304-1.056-.432-.449-.063-.449-.223v-.672l.096-.064H15.6L15.759 4v.672q0 .256-.32.256l-.48.064q-.416.063-.608.16c-.192.097-.187.192-.176.384a1.7 1.7 0 0 0 .128.56q.112.271.464.976l2.336 4.8 2.592-5.184q.513-1.024.16-1.376-.193-.255-1.186-.352l-.289-.032a.3.3 0 0 1-.224-.096c-.062-.021-.097-.085-.097-.192v-.608l.097-.064a271 271 0 0 1 5.95 0l.064.064v.64q0 .256-.289.256-.703.031-.975.146-.272.111-.529.496-.736 1.088-.959 1.536l-3.359 6.272-.092.222 4.098 8.384.256.096L28.786 6.688q.385-.896-.098-1.312-.417-.384-1.249-.416l-.607-.032q-.097 0-.191-.096-.129-.064-.129-.192V4l.096-.064h7.328L34 4v.64q-.001.224-.289.288-1.472.065-2.111.608-.64.512-1.088 1.568l-8 18.144q-.32.735-.721.977-.398.239-.768-.033-.367-.271-.723-.976c-.811-1.6-2.109-4.405-3.903-8.416q-3.36 6.913-4.192 8.448-1.312 2.273-2.272.031-1.024-2.4-4.16-9.104T1.613 7.007Q1.101 5.663.717 5.343.368 5.025-.944 4.928q-.449-.064-.449-.224"/></svg>