<svg xmlns="http://www.w3.org/2000/svg" width="32" height="32" viewBox="3.5 0 32 32" xml:space="preserve"><path d="m-3.956 28.576 3.36-11.872q1.12-.64 2.736-.992 1.616-.351 2.672-.416L5.9 15.264q1.6 0 3.328.32 3.232.64 4.608 1.952l-3.328 11.84A10.5 10.5 0 0 0 7.964 27.92q-1.392-.56-2.192-.656l-.832-.128A24 24 0 0 0 2.86 27.04q-.511 0-1.36.048-.848.048-2.672.432-1.824.383-2.784 1.056M.076 13.312 3.436 1.44Q4.556.8 6.188.432 7.82.063 8.876.032L9.932 0q1.632 0 3.328.32 3.232.64 4.608 1.952L14.54 14.144a10.5 10.5 0 0 0-2.544-1.456q-1.392-.56-2.192-.656l-.832-.128a24 24 0 0 0-2.048-.096 25 25 0 0 0-1.36.048q-.848.048-2.688.416t-2.8 1.04m13.792 16.417 3.328-11.873a11 11 0 0 0 2.576 1.457q1.392.56 2.191.655l.801.128a24 24 0 0 0 2.079.096q.512 0 1.36-.047.847-.05 2.688-.416 1.84-.369 2.769-1.041l-3.328 11.873q-1.12.64-2.752.991-1.632.352-2.688.384L21.836 32a18 18 0 0 1-3.328-.32q-3.231-.64-4.64-1.951m3.84-15.201 3.328-11.84q1.184.896 2.576 1.456c1.392.56 1.658.592 2.191.656l.801.128a24 24 0 0 0 2.08.096q.511 0 1.359-.048t2.672-.416q1.825-.369 2.784-1.04l-3.328 11.84q-1.12.64-2.752 1.008t-2.72.399l-1.057.064a15.6 15.6 0 0 1-3.295-.352q-3.232-.607-4.639-1.951"/></svg>