<svg xmlns="http://www.w3.org/2000/svg" width="32" height="32"><path d="M0 16.032Q0 11.68 2.144 8T7.968 2.176 16 .032t8.032 2.144T29.856 8 32 16.032t-2.144 8.032-5.824 5.824T16 32.032 7.968 29.888 2.144 24.064 0 16.032m1.248 0q0 4.32 2.288 7.904t6.032 5.376L2.528 10.016q-1.28 2.848-1.28 6.016m2.4-8.096h.96q1.536 0 3.936-.192.384-.032.56.256t.048.608T8.64 8.96l-1.696.16 5.376 15.968 3.232-9.664L13.248 9.12q-.768-.096-1.536-.16-.384-.032-.512-.352T11.248 8t.56-.256l3.872.192q1.568 0 3.936-.192Q20 7.712 20.176 8t.048.608-.512.352l-1.664.16 5.312 15.872 1.472-4.928q1.152-3.744 1.152-4.768 0-2.048-1.248-4.096-.064-.096-.4-.672t-.432-.752-.288-.608-.256-.752-.064-.672q0-1.056.72-1.84t1.776-.784q.032 0 .096.016t.096.016Q21.792 1.28 16 1.28q-3.808 0-7.072 1.792t-5.28 4.864m8.192 22.272q1.984.576 4.16.576 2.56 0 4.896-.832L20.8 29.76 16.256 17.312zM23.424 28.8q3.36-1.952 5.344-5.36t1.984-7.408q0-3.84-1.792-7.072.096.672.096 1.504 0 2.016-1.12 5.28z"/></svg>