<svg xmlns="http://www.w3.org/2000/svg" width="128" height="128" xml:space="preserve"><path d="M375.039 397.115c-62.102 0-114.987 39.991-132.585 95.105h19.648a113 113 0 0 1 7.306-15.727h37.81c-1.648 5.145-3.004 10.407-4.127 15.727h19.153c1.338-5.362 2.933-10.627 4.83-15.727h36.49v15.727h18.492v-15.727h39.42c2.122 5.104 3.904 10.36 5.408 15.727h19.153c-1.286-5.326-2.784-10.578-4.623-15.727h39.256a113 113 0 0 1 7.306 15.727h19.607C489.985 437.106 437.14 397.115 375.039 397.115m27.904 21.754c25.884 5.952 48.49 19.91 64.848 39.132h-34.302c-7.661-14.822-17.812-28.198-30.546-39.132m-61.216 1.362c-11.463 10.641-20.505 23.525-27.243 37.77h-32.197c15.21-17.873 35.816-31.193 59.44-37.77m40.33 5.944c12.191 8.346 22.03 19.352 29.843 31.826h-29.844zm-18.493.124v31.702H335.7c7.158-12.503 16.296-23.48 27.863-31.702m-115.58 83.795c-1.84 0-3.377.415-4.622 1.28-1.246.864-1.858 1.94-1.858 3.178 0 .925.267 2.208.867 3.88l9.824 28.234c.3.844.644 1.796 1.032 2.807a9.7 9.7 0 0 0 1.569 2.683c.638.773 1.506 1.367 2.6 1.816s2.47.66 4.128.66c2.057 0 3.673-.372 4.912-1.114 1.24-.741 2.123-1.539 2.6-2.435.478-.897 1.071-2.278 1.817-4.17l8.792-24.766 8.751 24.89c.729 1.845 1.309 3.206 1.775 4.087s1.32 1.704 2.56 2.435c1.238.732 2.887 1.074 4.953 1.074 2.171 0 3.874-.357 5.077-1.115s2.045-1.61 2.518-2.56c.473-.947 1.027-2.393 1.692-4.292l9.824-28.234c.61-1.773.908-3.056.909-3.88 0-1.26-.638-2.325-1.9-3.179-1.26-.853-2.774-1.28-4.581-1.28-1.813 0-3.212.322-4.17.991q-1.434 1.004-1.98 2.188c-.367.79-.744 1.834-1.115 3.096l-6.935 24.024-7.76-22.497c-.725-1.89-1.314-3.246-1.775-4.128-.461-.881-1.351-1.736-2.6-2.518s-2.992-1.155-5.243-1.155c-2.213 0-3.942.361-5.242 1.114s-2.23 1.636-2.766 2.6-1.122 2.307-1.775 4.087l-7.719 22.497-6.976-24.19c-.545-1.834-1.253-3.293-2.105-4.416s-2.536-1.692-5.077-1.692m95.064 0c-1.84 0-3.377.415-4.623 1.28-1.246.864-1.857 1.94-1.857 3.178 0 .925.307 2.208.908 3.88l9.824 28.234c.3.844.644 1.796 1.032 2.807s.89 1.91 1.527 2.683c.638.773 1.506 1.367 2.6 1.816s2.47.66 4.129.66c2.057 0 3.714-.372 4.953-1.114 1.239-.741 2.082-1.539 2.56-2.435.476-.897 1.07-2.278 1.815-4.17l8.793-24.766 8.75 24.89c.73 1.845 1.31 3.206 1.776 4.087s1.32 1.704 2.559 2.435 2.887 1.074 4.953 1.074c2.172 0 3.874-.357 5.077-1.115s2.045-1.61 2.518-2.56c.473-.947 1.027-2.393 1.693-4.292l9.824-28.234c.609-1.773.908-3.056.908-3.88 0-1.26-.638-2.325-1.899-3.179s-2.774-1.28-4.582-1.28c-1.812 0-3.211.322-4.169.991q-1.434 1.004-1.981 2.188c-.366.79-.744 1.834-1.115 3.096l-6.934 24.024-7.76-22.497c-.726-1.89-1.315-3.246-1.776-4.128-.46-.881-1.31-1.736-2.559-2.518S377 510.094 374.75 510.094c-2.213 0-3.983.361-5.284 1.114s-2.23 1.636-2.765 2.6c-.537.965-1.122 2.307-1.775 4.087l-7.72 22.497-6.975-24.19c-.546-1.834-1.213-3.293-2.064-4.416-.852-1.123-2.577-1.692-5.119-1.692m95.064 0c-1.84 0-3.377.415-4.623 1.28-1.246.864-1.858 1.94-1.858 3.178 0 .925.308 2.208.908 3.88l9.824 28.234c.3.844.644 1.796 1.032 2.807.389 1.01.89 1.91 1.528 2.683s1.506 1.367 2.6 1.816 2.47.66 4.128.66c2.057 0 3.714-.372 4.953-1.114 1.24-.741 2.082-1.539 2.56-2.435.477-.897 1.112-2.278 1.857-4.17l8.751-24.766 8.751 24.89c.729 1.845 1.309 3.206 1.775 4.087s1.32 1.704 2.56 2.435c1.238.732 2.887 1.074 4.953 1.074 2.172 0 3.874-.357 5.077-1.115s2.045-1.61 2.518-2.56c.473-.947 1.027-2.393 1.692-4.292l9.824-28.234c.61-1.773.908-3.056.909-3.88 0-1.26-.597-2.325-1.858-3.179s-2.816-1.28-4.623-1.28c-1.813 0-3.212.322-4.17.991q-1.434 1.004-1.98 2.188c-.367.79-.744 1.834-1.115 3.096l-6.894 24.024-7.801-22.497c-.725-1.89-1.314-3.246-1.775-4.128-.461-.881-1.31-1.736-2.56-2.518s-2.991-1.155-5.242-1.155c-2.213 0-3.983.361-5.283 1.114s-2.23 1.636-2.766 2.6-1.122 2.307-1.775 4.087l-7.719 22.497-6.935-24.19c-.545-1.834-1.253-3.293-2.105-4.416-.851-1.123-2.577-1.692-5.118-1.692m-196.36 59.977c16.8 56.359 70.272 97.54 133.287 97.54s116.487-41.18 133.287-97.54H488.8a114 114 0 0 1-6.687 15.396h-39.627c1.687-5.039 3.08-10.19 4.252-15.396h-18.864c-1.317 5.264-2.895 10.408-4.83 15.396h-40.989v-15.396h-18.492v15.396h-37.44a157 157 0 0 1-4.375-15.396H302.76a190 190 0 0 0 3.839 15.396h-38.637a114 114 0 0 1-6.728-15.396zm38.347 33.889h33.146c6.766 15.649 15.735 29.624 27.285 40.246C316.212 637.172 295.254 622.9 280.1 603.96m53.744 0h29.72v34.55c-12.01-7.613-22.054-19.75-29.72-34.55m48.213 0h31.784c-8.07 13.49-18.563 25.159-31.784 33.683zm53.043 0h34.88c-16.691 20.859-40.46 36.046-67.944 42.145 14.103-11.404 25.062-25.924 33.064-42.145" style="line-height:normal;-inkscape-font-specification:Sans;text-indent:0;text-align:start;text-decoration-line:none;text-transform:none;block-progression:tb;marker:none" color="#000" font-family="Sans" overflow="visible" transform="translate(-113.412 -187.917)scale(.4732)"/></svg>