<svg xmlns="http://www.w3.org/2000/svg" width="32" height="32" viewBox="6 0 32 32" xml:space="preserve"><path d="m-6 3.488.192.608q.128.191.24.32c.112.129.133.139.176.16l.064.064.608.32h3.552l9.184 11.008q.351.384.352.801v6.144q0 .256-.08.384-.08.129-.176.16h-.096q-3.585 0-4.544.096-.32 0-.32.288v1.761h16.512v-1.824q0-.096-.08-.16c-.08-.064-.102-.064-.145-.064h-4.671q-.288 0-.288-.479v-6.464q-.032-.096.048-.225a1.3 1.3 0 0 1 .176-.224l.096-.097q.353-.352 8.448-7.967h4.256q.288 0 .576-.224l.544-.608a.85.85 0 0 0 .192-.576v-.45a.3.3 0 0 0-.096-.144q-.064-.048-.097-.048H14.608l-.224.192q-.032.192.048.4c.08.208.112.24.176.304l.064.128.736.736.576.224h3.68l-6.624 6.24L5.744 4.96h1.312q.416.031.704-.128L9.936 4.16a.3.3 0 0 0 .096-.032.45.45 0 0 0 .144-.16.53.53 0 0 0 .08-.288v-.448a.22.22 0 0 0-.064-.16q-.063-.064-.128-.064H-5.68q-.257.032-.32.224zM32.08 0 38 .224l-2.656 18.144-1.951-.096zm.416 24.416.128-3.521 3.521.129-.129 3.52z"/></svg>