<svg xmlns="http://www.w3.org/2000/svg" width="32" height="32" xml:space="preserve"><path d="M4.288 18.848v.416q0 1.377.192 2.209.16.575.608.815a1.13 1.13 0 0 0 .928.08l6.528-2.017c.47-.148.8-.428.992-.832q.159-.32.159-.642c0-.322-.053-.416-.159-.606-.192-.404-.533-.684-1.024-.832L5.985 14.814q-.448-.096-.88.24t-.528.976q-.257 1.154-.289 2.818M7.072 3.584a.96.96 0 0 1-.16-.512 1.03 1.03 0 0 1 .192-.576q.385-.544 1.216-.864A28.3 28.3 0 0 1 13.792.16h.16q1.44 0 1.567 1.216.8 10.016.801 12.576 0 1.056-.864 1.28a1.2 1.2 0 0 1-.384.064q-.673 0-1.184-.8Q9.153 7.072 7.072 3.584m2.208 24.48 4.449-5.312c.403-.447.812-.672 1.215-.672a1.4 1.4 0 0 1 .514.096q.798.352.8 1.44 0 .16-.03.319v7.07q-.065.45-.545.704a1.2 1.2 0 0 1-.576.16q-.254 0-.513-.099-1.151-.19-2.72-.813c-1.045-.416-1.824-.813-2.336-1.2-.384-.298-.576-.615-.576-.959q-.002-.35.318-.734M18.688 17.28a1.66 1.66 0 0 1-.189-.736q0-.544.479-1.056l4.16-5.728q.222-.255.641-.256c.062 0 .14.011.225.032q.542.063.93.576c.531.555 1.1 1.307 1.694 2.256q.896 1.424 1.187 2.352a1.4 1.4 0 0 1 .096.48q0 .287-.129.512a1.08 1.08 0 0 1-.735.512l-6.688 1.696a2 2 0 0 1-.512.064q-.744 0-1.159-.704m.384 4q-.287.384-.288.768 0 .512.416 1.024l3.647 6.08q.222.285.769.287h.096a1.57 1.57 0 0 0 1.056-.479q.864-.768 1.776-2c.912-1.232 1.052-1.562 1.328-2.224A2 2 0 0 0 28 24.064a.9.9 0 0 0-.096-.416.96.96 0 0 0-.607-.608L20.736 20.8a1.6 1.6 0 0 0-.608-.128q-.672 0-1.056.608"/></svg>