<svg xmlns="http://www.w3.org/2000/svg" width="32" height="32" viewBox="-2 0 32 32" xml:space="preserve"><path d="M2.383 22.943q0-1.726.192-5.184.128-1.696 1.216-2.768t2.784-1.168q3.2-.16 9.632-.16t9.633.16q1.696.096 2.783 1.168 1.088 1.071 1.217 2.768.159 2.88.16 5.184-.001 2.305-.16 5.185-.129 1.697-1.217 2.769-1.088 1.071-2.783 1.167-3.201.16-9.633.16t-9.632-.16Q4.88 31.968 3.792 30.896 2.703 29.824 2.576 28.127q-.193-3.454-.193-5.184m2.144-4.511h1.952v10.433h1.888V18.432h1.952v-1.76H4.527zM6.607-.864h1.92L9.743 4h.128l1.152-4.864h1.92l-1.472 4.736q-.736 2.335-.736 2.4v5.056H8.847V6.496A5 5 0 0 0 8.671 5.68q-.112-.368-.288-.848c-.176-.48-.208-.587-.272-.8zm3.712 28.32q0 1.536 1.152 1.536 1.024 0 1.952-1.12v.992h1.665v-8.992h-1.665v6.848q-.672.672-.992.673-.448 0-.448-.608v-6.912h-1.664zm2.528-18.4V4.384q0-1.088.704-1.68c.704-.592 1.067-.592 1.792-.592q1.055 0 1.711.64t.656 1.696v4.64q0 1.152-.64 1.808c-.64.656-1.024.656-1.792.656q-1.12 0-1.776-.688-.654-.688-.655-1.808m1.728.224q0 .736.704.736.736 0 .736-.8V4.32a.6.6 0 0 0-.225-.48q-.223-.192-.512-.192c-.289 0-.357.059-.496.176a.58.58 0 0 0-.208.464zm2.144 19.584h1.696v-.673q.64.801 1.601.801 1.503 0 1.504-1.984v-4.992q0-2.271-1.633-2.271-.799 0-1.472.863v-3.936h-1.696zm1.696-1.696v-5.632q.353-.353.704-.353.704 0 .704.896v4.736q0 .768-.608.768-.448.001-.8-.415M19.151 9.92V2.336h1.664v6.88q0 .608.448.608.415 0 .992-.672V2.336h1.664v8.992h-1.664v-.992q-.928 1.12-1.953 1.12-1.15 0-1.151-1.536m3.648 16.416q0 1.217.608 2c.608.783 1.013.784 1.824.784q2.496 0 2.495-2.784v-.672H26q-.001.064.016.432A2.6 2.6 0 0 1 26 26.624a16 16 0 0 0-.08.433q-.049.272-.209.383-.16.112-.447.112-.736 0-.736-1.28v-1.695h3.199v-2.305q0-1.216-.592-1.92-.591-.703-1.808-.703-1.153 0-1.84.735-.687.736-.688 1.888zm1.728-3.168v-.96q0-.992.736-.992.735 0 .736.992v.96z"/></svg>